<svg width="60" height="60" viewBox="0 0 60 60" fill="none" xmlns="http://www.w3.org/2000/svg">
<path fill-rule="evenodd" clip-rule="evenodd" d="M2.5 30C2.5 14.8122 14.8122 2.5 30 2.5C45.1878 2.5 57.5 14.8122 57.5 30C57.5 45.1878 45.1878 57.5 30 57.5C14.8122 57.5 2.5 45.1878 2.5 30ZM30 7.5C17.5736 7.5 7.5 17.5736 7.5 30C7.5 42.4264 17.5736 52.5 30 52.5C42.4264 52.5 52.5 42.4264 52.5 30C52.5 17.5736 42.4264 7.5 30 7.5ZM30 17.5C31.3807 17.5 32.5 18.6193 32.5 20V27.5H40C41.3807 27.5 42.5 28.6193 42.5 30C42.5 31.3807 41.3807 32.5 40 32.5H32.5V40C32.5 41.3807 31.3807 42.5 30 42.5C28.6193 42.5 27.5 41.3807 27.5 40V32.5H20C18.6193 32.5 17.5 31.3807 17.5 30C17.5 28.6193 18.6193 27.5 20 27.5H27.5V20C27.5 18.6193 28.6193 17.5 30 17.5Z" fill="white"/>
</svg>
