<svg width="12" height="27" viewBox="0 0 12 27" fill="none" xmlns="http://www.w3.org/2000/svg">
<path d="M8.14537 4.20771C8.74729 5.02024 9.31249 5.74518 9.81015 6.33557C10.7968 7.519 11.5179 8.1816 11.7095 8.04223C11.9011 7.90286 11.581 6.99374 10.9024 5.65375C10.5615 4.98661 10.0968 4.18344 9.56874 3.3151L8.73016 1.96807L8.26782 1.26311C8.15397 1.08397 8.02198 0.918002 7.87395 0.767822C7.67063 0.558945 7.42154 0.402346 7.14571 0.310012C6.87117 0.224304 6.57829 0.206797 6.29071 0.25889C6.1552 0.283742 6.02184 0.321834 5.89248 0.372659C5.7977 0.410225 5.70482 0.453111 5.61431 0.501114C5.345 0.651403 5.08379 0.817159 4.83196 0.99755C4.38853 1.30966 3.96243 1.64755 3.55588 2.00948C2.87225 2.6108 2.25575 3.28844 1.71868 4.02886C0.815099 5.29301 0.531711 6.22396 0.742887 6.35649C0.954063 6.48902 1.62991 5.85122 2.71118 4.89485C3.24027 4.44379 3.90933 3.86935 4.67038 3.30884L5.03867 3.04414C4.88891 3.86308 4.73696 4.94182 4.60776 6.37625C4.43534 8.36343 4.36328 10.3544 4.39188 12.3413C4.41831 14.5365 4.56032 16.7242 4.81728 18.8946C5.30048 23.0416 6.18488 26.2636 6.44766 26.2011C6.71043 26.1387 6.46081 22.8899 6.39765 18.8203C6.32159 14.7597 6.47403 10.6889 6.85425 6.62817C7.01374 4.93468 7.13077 3.73956 7.19035 2.87785L7.22297 2.89603L8.16212 4.16484" fill="#5C6BC0"/>
</svg>
