<svg width="33" height="38" viewBox="0 0 33 38" fill="none" xmlns="http://www.w3.org/2000/svg">
<path d="M29.4565 0.24139C29.2075 0.255393 28.9636 0.314679 28.736 0.416525C28.3937 0.558997 28.0733 0.751024 27.7845 0.986912C24.2165 3.73064 21.5412 6.22343 21.8108 6.54787C22.0805 6.87231 24.9591 5.05918 28.3588 2.47505C28.2196 3.02323 28.0381 3.75685 27.767 4.70444C27.4959 5.65203 27.1198 6.86253 26.5471 8.29601C25.8726 10.0227 25.0657 11.6892 24.134 13.2797C23.5356 14.3055 22.8853 15.2975 22.1856 16.2515C21.3762 17.3737 20.4927 18.4363 19.5412 19.4319C18.9923 20.0043 18.4119 20.5436 17.8027 21.0471C17.7936 21.0097 17.7845 20.9723 17.7755 20.935C17.6344 18.9249 16.9239 16.9923 15.7326 15.3784C14.734 14.0078 13.3665 12.9698 11.8057 12.3975C10.2448 11.8253 8.56177 11.745 6.97244 12.1668C5.85338 12.4345 4.8073 12.9491 3.90534 13.6753C2.99203 14.3872 2.29752 15.3557 1.90257 16.4681C1.54149 17.5295 1.47545 18.6787 1.71185 19.7869C1.95328 20.8543 2.41674 21.8582 3.06982 22.7284C3.72289 23.5986 4.54981 24.3142 5.49274 24.8249C7.38776 25.7903 9.51092 26.1487 11.5856 25.8533C13.2653 25.6403 14.8878 25.1099 16.3723 24.2885C16.28 24.9192 16.1513 25.5431 15.9871 26.1568C15.5557 27.7411 14.9587 29.2696 14.2064 30.7155C13.531 32.0469 12.6839 33.2755 11.6878 34.3684C10.7978 35.3118 9.71467 36.0381 8.51504 36.4961C6.72466 37.1803 4.81095 37.4743 2.89296 37.3597C2.18462 37.2744 1.47298 37.2286 0.761133 37.2223C1.42553 37.5148 2.13146 37.6892 2.84862 37.7378C4.84844 38.0128 6.87503 37.8215 8.7789 37.178C10.1208 36.7254 11.3443 35.9706 12.3621 34.9675C13.4656 33.8473 14.4122 32.5732 15.1753 31.1809C16.0121 29.6837 16.6876 28.0944 17.1898 26.441C17.4833 25.4494 17.6844 24.4297 17.7904 23.3956C18.9399 22.6031 20.0076 21.6922 20.9775 20.6766C21.9925 19.6166 22.9315 18.4818 23.7875 17.2807C25.665 14.707 27.1764 11.866 28.2768 8.84203C28.7189 7.61456 29.0795 6.35618 29.3561 5.07552C29.5293 4.30046 29.6568 3.51452 29.7379 2.72199L29.7681 2.35292C29.7773 2.40151 29.789 2.44961 29.8031 2.49701C29.9647 2.87032 30.1211 3.22227 30.2736 3.55822C30.5684 4.23262 30.8346 4.83482 31.0595 5.33404C31.5197 6.35256 31.8464 6.93439 32.0356 6.88276C32.2247 6.83114 32.2221 6.1479 32.0179 5.03889C31.8952 4.38724 31.7384 3.74236 31.5484 3.10706C31.4589 2.73884 31.3127 2.36178 31.1794 1.97029C31.1018 1.76309 31.0435 1.59074 30.9465 1.34868C30.8876 1.20388 30.8121 1.06662 30.7218 0.939851C30.5974 0.755863 30.4353 0.60218 30.2473 0.49001C30.0053 0.347794 29.7315 0.275631 29.4553 0.281251L29.4565 0.24139ZM16.4332 21.0861C16.466 21.4002 16.4872 21.7116 16.498 22.0255C16.3245 22.1411 16.1625 22.2596 15.9864 22.3646C14.585 23.253 13.015 23.8271 11.3763 24.0504C9.69599 24.3054 7.97188 24.0357 6.42433 23.2759C5.69315 22.8885 5.04891 22.344 4.53563 21.6797C4.02234 21.0153 3.6521 20.2468 3.45017 19.4265C3.26198 18.6149 3.29605 17.7688 3.54856 16.9836C3.82397 16.173 4.31925 15.4643 4.97608 14.9411C5.68441 14.3781 6.49589 13.9672 7.36382 13.7319C8.23175 13.4967 9.13901 13.4418 10.0334 13.5705C11.7921 13.8675 13.3892 14.835 14.5076 16.2809C15.5917 17.659 16.2665 19.3282 16.4487 21.0823" fill="#5C6BC0"/>
</svg>
