<svg width="221" height="180" viewBox="0 0 221 180" fill="none" xmlns="http://www.w3.org/2000/svg">
<path d="M217.317 70.8227C215.223 65.3275 210.923 60.4214 205.689 56.8839C190.579 47.2933 167.552 46.6104 151.983 55.2807C143.492 59.6081 137.912 68.1716 136.175 76.9905C133.025 91.4794 133.838 108.718 145.005 119.579C158.026 130.989 176.977 133.51 193.828 128.822C194.629 128.669 197.166 128.03 198.916 127.102L199.409 126.891C204.643 124.717 209.634 121.177 213.361 116.383C221.961 103.812 222.551 84.9779 217.317 70.8227ZM189.88 103.359C189.286 106.106 187.437 108.953 184.521 109.985C179.879 112.027 173.6 111.461 169.299 109.073C165.693 106.552 165.229 102.332 164.764 98.338C164.412 90.4653 163.844 82.1286 166.05 74.9311C167.779 70.4734 172.549 69.3264 176.862 68.9901C181.392 68.9901 185.802 69.6809 188.6 73.3331C190.342 75.953 190.235 79.381 190.579 82.4675C190.456 88.9716 191.041 96.7296 189.88 103.359ZM52.1174 110.449C48.2787 110.215 43.9785 110.551 40.2623 110.095L40.3771 70.0068L40.6118 69.6731L52.1174 69.561C52.2374 63.0543 52.3521 56.0758 51.9975 50.1452L8.17846 50.0227L0.962654 50.1478C0.84791 56.1957 0.84791 63.2681 0.962654 69.4411C4.9187 69.5636 8.63222 69.4411 12.4709 69.7982V108.622L12.3588 110.217L0.84791 110.452C0.607988 116.73 0.607988 123.016 0.84791 129.294H52.1148L52.1174 110.449ZM181.152 137.85C176.275 144.823 170.113 151.559 163.385 156.799C163.14 157.156 162.443 157.021 162.222 156.692C159.306 154.87 156.169 153.379 153.373 151.559C157.097 147.109 160.704 142.657 163.494 137.727H159.877C156.988 141.969 153.958 146.419 150.124 150.175C145.005 148.124 140.358 146.299 135.127 144.917L134.545 144.482C135.359 142.175 136.866 140.008 137.328 137.722H134.19L131.053 143.893C124.203 142.409 116.642 141.601 109.667 141.15C109.315 140.126 109.776 138.64 109.315 137.722H106.292C106.052 139.096 106.642 140.131 105.943 141.27C98.7346 141.601 91.7614 142.409 85.0254 143.794L81.8752 137.722C80.7251 137.722 79.4316 137.503 78.6284 137.845L81.5283 144.583L81.1815 144.917C75.9712 146.424 70.8486 148.219 65.8371 150.292L65.3755 150.058C62.1132 146.518 58.9734 142.652 56.4125 138.768C55.8362 136.815 53.51 137.957 52.2296 137.727C55.0095 142.759 58.7413 147.206 62.4548 151.781C59.3176 153.614 56.1908 155.657 52.9206 157.156C45.8096 151.743 39.6108 145.227 34.5591 137.855C33.1613 137.631 32.2407 137.733 30.8351 137.855C39.2062 150.874 52.2296 162.289 65.8319 169.028C65.8319 169.028 65.8319 168.926 65.9571 168.926C66.0562 168.926 66.2883 169.137 66.0562 169.257C75.2461 173.712 85.0176 176.908 95.3549 178.285C131.048 182.961 165.114 167.782 184.865 137.855C183.631 137.728 182.387 137.726 181.152 137.85ZM132.686 148.126L133.027 147.897C138.04 149.039 142.796 150.639 147.216 152.803C143.492 157.018 138.725 160.681 134.313 163.762C131.643 165.355 128.959 167.086 126.166 168.447L121.177 166.278L121.519 165.488C125.712 159.896 129.434 154.179 132.686 148.126ZM109.776 144.698C116.408 144.823 123.037 145.506 129.189 146.984L129.311 147.331C126.062 153.491 121.983 159.442 117.573 165.026C115.586 165.261 113.735 164.471 111.761 164.349L109.773 164.114C109.547 157.375 109.424 151.437 109.776 144.698ZM87.3489 146.752C93.3938 145.611 99.6682 144.698 106.175 144.698L106.295 164.018C103.849 164.57 101.176 164.57 98.8494 165.157C94.0823 159.547 90.1341 153.491 86.7674 147.206L87.3489 146.752ZM68.6223 152.925C73.1677 150.749 77.9269 149.14 82.8035 147.894L83.2756 148.014C86.637 154.297 90.8278 160.23 95.0107 166.168C93.3964 167.088 91.4093 167.638 89.7872 168.566C81.9256 164.684 74.772 159.51 68.6249 153.259V152.925H68.6223ZM83.625 172.451C73.8587 169.93 64.7836 165.592 56.4151 159.664V159.31C59.2055 157.612 62.0063 155.78 65.0183 154.51C71.6499 161.038 78.5033 165.949 85.9433 170.621C85.3644 171.306 84.436 171.994 83.625 172.451ZM126.75 173.926C114.431 176.569 100.706 176.671 88.3895 173.707C88.1548 173.139 88.971 173.016 89.3178 172.683C100.13 165.709 116.979 165.709 127.569 173.238C127.913 173.926 126.985 173.707 126.75 173.926ZM137.914 170.741L132.451 172.448C131.517 171.992 130.709 171.306 129.888 170.618L130.122 170.269C137.565 165.947 144.303 160.678 150.7 154.398C153.84 155.652 156.865 157.375 159.663 159.307C153.147 164.471 145.587 167.881 137.914 170.741ZM34.3322 41.3471C37.2077 37.3692 40.3532 33.5934 43.7464 30.0464C46.7584 27.192 49.5592 24.4522 52.8189 22.3875C55.844 24.327 59.2107 25.9433 62.1158 27.7629C58.5144 32.1945 54.7931 36.6678 52.12 41.4514C52.9285 41.8085 54.4462 41.6964 55.6119 41.4514C58.5144 37.2335 61.6438 33.0104 65.3782 29.2383C70.3643 31.0709 75.2539 33.0052 80.3757 34.3816L80.8268 34.8352L77.9322 41.4514C79.2152 41.6964 80.0288 41.5765 81.2988 41.4514C82.3419 39.5223 83.1504 37.3587 84.3135 35.4061C91.0651 36.8972 98.1583 37.6923 105.366 37.9139C106.289 38.7246 105.596 40.4295 105.945 41.4514H109.082C109.424 40.3305 108.965 39.0583 109.424 38.0416C116.173 37.6871 123.261 37.0015 129.794 35.4009L130.36 35.5208L133.499 41.4462C134.548 41.4462 135.94 41.6912 136.754 41.2116L133.841 34.6058L134.083 34.3764C139.422 33.0052 144.429 30.951 149.543 28.8994C153.157 32.6663 156.518 37.1188 159.551 41.4436C160.824 41.4436 162.104 41.5687 163.035 41.209C161.6 38.6595 159.925 36.2521 158.034 34.0193C156.498 31.8323 154.785 29.7755 152.912 27.8697V27.278L161.051 22.6039L162.224 22.1477C169.302 27.5032 175.496 33.935 180.581 41.209C181.976 41.209 183.142 41.6886 184.307 41.1125C168.713 17.836 143.026 2.85965 115.255 0.703788L115.133 0.92537L114.895 0.703788C111.761 0.367505 107.909 0.234555 104.542 0.570839C103.267 0.471778 101.76 0.570839 100.245 0.703788C72.3488 2.85965 46.6593 17.1426 30.6082 41.4566C31.7713 41.3471 33.1665 41.8111 34.3322 41.3471ZM82.5845 31.3134L82.1203 31.4124C77.348 30.169 72.6931 28.67 68.2754 26.7358L68.4997 26.0502C74.8941 19.9997 81.6352 14.9711 89.0753 11.0973C90.8278 11.7829 92.5698 12.3486 94.3118 13.1593L93.9702 14.0508C89.5447 19.5461 86.0659 25.4714 82.5845 31.3134ZM105.711 34.3868C102.464 34.843 99.5561 34.2852 96.2885 34.0323C93.1644 33.5735 89.2031 33.2424 86.0659 32.1997C89.4378 25.9485 93.3964 19.885 98.1583 14.3037L105.601 15.3178C105.945 21.2457 105.711 28.1017 105.711 34.3868ZM109.312 34.5094C109.082 28.438 109.202 21.7098 109.312 15.4273C111.646 15.0936 114.191 14.739 116.522 14.4028C121.055 20.1039 125.483 25.9485 128.508 32.1997C122.222 33.72 115.779 34.4952 109.312 34.5094ZM146.408 26.5037C141.865 28.4354 137.21 30.2654 132.219 31.3134C128.618 25.2603 124.667 19.2098 120.236 13.3626C121.866 12.4685 123.853 11.7829 125.592 10.8731C133.163 14.6374 140.478 19.9997 146.632 26.1466L146.408 26.5037ZM131.517 6.97847C141.284 9.49668 150.468 13.8293 158.839 19.7677L158.607 20.2239L150.594 24.6711H150.002C143.85 18.5268 136.644 13.1593 129.311 8.92317C129.543 8.12287 130.712 7.54676 131.517 6.97847ZM126.873 5.83145V6.07389C116.752 13.3626 100.365 14.0508 89.6751 7.31214C89.0753 6.85595 87.9279 6.63436 87.8027 5.83406C100.132 2.9926 114.655 2.7632 126.873 5.83145ZM55.9535 19.9997C63.2841 14.6374 71.4178 10.6411 80.0236 7.89868C80.3757 7.54155 80.5999 7.20526 81.0589 7.20526V7.43988C81.9873 7.66407 82.6888 6.62915 83.4998 7.30693C84.2013 7.89868 85.0228 8.34967 85.5965 8.91796C78.3937 13.3626 71.2979 18.6259 64.7862 25.0074C61.6464 23.8865 58.7517 22.1633 55.9509 20.2239L55.9535 19.9997ZM105.83 111.341C94.9038 114.315 83.0382 112.047 75.1366 103.812C74.2108 102.671 73.624 101.31 72.6905 100.173L57.0019 100.283C56.7541 109.529 56.6446 120.152 57.0019 129.292L74.4325 129.18L74.6646 123.695C76.6491 124.607 78.6284 125.746 80.5999 126.771C92.6897 131.802 108.253 132.944 120.231 126.771C128.957 121.987 133.609 112.741 132.326 102.785C131.053 93.0904 121.749 84.2923 112.34 81.9018L84.1987 73.7867L82.1177 72.7544C81.1867 71.9619 80.6025 70.94 80.8294 69.6731C83.0382 65.914 88.16 67.0558 91.9961 67.1575C100.132 68.3019 108.501 71.0417 113.271 78.4686C118.379 78.4686 124.307 78.5677 129.882 78.3487C130.12 68.9875 129.791 60.7707 129.653 51.2896C124.422 51.1697 118.025 51.1697 112.801 51.4096C112.566 52.7677 113.025 54.702 112.444 56.0784L107.1 53.2213C94.3066 47.8564 76.4014 47.2959 64.781 55.6326C57.2209 61.1044 54.9026 70.9348 56.8793 79.6104C58.384 87.8194 66.2883 93.8777 73.8483 96.7244C84.1935 100.374 95.0003 103.017 105.481 106.552C106.519 107.016 107.912 108.051 107.687 109.305C107.692 110.319 106.639 110.906 105.83 111.341Z" fill="white"/>
</svg>
