<svg width="60" height="60" viewBox="0 0 60 60" fill="none" xmlns="http://www.w3.org/2000/svg">
<path d="M32.4896 7.5C32.4896 6.11929 31.3703 5 29.9896 5C28.6089 5 27.4896 6.11929 27.4896 7.5V33.9541L20.5178 26.9822C19.5415 26.0059 17.9585 26.0059 16.9822 26.9822C16.0059 27.9585 16.0059 29.5415 16.9822 30.5178L28.0913 41.6268C28.5498 42.1613 29.2302 42.5 29.9896 42.5L29.9947 42.5C30.6363 42.5014 31.2783 42.2573 31.7678 41.7678L43.0178 30.5178C43.9941 29.5415 43.9941 27.9585 43.0178 26.9822C42.0415 26.0059 40.4585 26.0059 39.4822 26.9822L32.4896 33.9748V7.5Z" fill="white"/>
<path d="M52.5 27.5C53.8807 27.5 55 28.6193 55 30V52.5C55 53.8807 53.8807 55 52.5 55H7.5C6.11929 55 5 53.8807 5 52.5V30.0104C5 28.6297 6.11929 27.5104 7.5 27.5104C8.88071 27.5104 10 28.6297 10 30.0104V50H50V30C50 28.6193 51.1193 27.5 52.5 27.5Z" fill="white"/>
</svg>
