<svg width="384" height="40" viewBox="0 0 384 40" fill="none" xmlns="http://www.w3.org/2000/svg">
<g clip-path="url(#clip0_1671_18113)">
<path d="M12.4959 0H0.431396V39.3548H12.4959V0Z" fill="white"/>
<path d="M52.1249 0H21.3024V39.3548H33.3991V29.4597H55.3024C63.8346 29.4597 66.3911 22.7177 66.3911 16.8468V13.4758C66.3669 5.73388 63.5927 0 52.1249 0ZM53.9717 15.4919C53.9717 17.8307 52.883 19.6774 50.0604 19.6774H33.3749V9.76613H49.0282C52.6653 9.76613 53.9717 11.2903 53.9717 13.9516V15.4919Z" fill="white"/>
<path d="M156.657 0H72.8911V9.76613H153.722C158.883 9.76613 160.891 11.2339 160.891 16.8306V22.1613C160.891 27.7581 158.883 29.2258 153.722 29.2258H134.367V15.4113H122.27V39.3307H156.625C168.722 39.3307 172.931 35.3629 172.931 25.621V13.6935C172.964 3.96774 168.722 0 156.657 0Z" fill="white"/>
<path d="M192.964 0H180.899V39.3548H192.964V0Z" fill="white"/>
<path d="M198.891 0V9.78226H215.851V39.3548H227.915V9.78226H244.875V0H198.891Z" fill="white"/>
<path d="M72.8911 15.4355V39.3549H114.577V29.8952H84.9556V23.5888H114.577V15.4355H84.9556H72.8911Z" fill="white"/>
<path d="M265.98 38.9194C264.231 38.2458 262.653 37.1938 261.359 35.8388C260.076 34.4681 259.083 32.8525 258.439 31.0888C257.741 29.1803 257.394 27.1612 257.415 25.1291C257.355 22.5924 257.937 20.0816 259.109 17.8307C260.184 15.8099 261.79 14.1203 263.754 12.9436C265.836 11.7354 268.21 11.1244 270.617 11.1775C273.498 11.1144 276.316 12.0235 278.617 13.7581V0.169434H286.939V25.0888C287 27.8323 286.371 30.5471 285.109 32.9839C283.939 35.1858 282.146 36.9947 279.956 38.1856C277.56 39.4485 274.881 40.0786 272.173 40.0162C270.058 40.047 267.956 39.6747 265.98 38.9194ZM275.528 31.863C276.486 31.2321 277.242 30.3391 277.706 29.2904C278.22 28.1337 278.476 26.8787 278.456 25.613C278.477 24.3549 278.221 23.1075 277.706 21.9598C277.234 20.9221 276.48 20.0387 275.528 19.4114C274.528 18.7729 273.36 18.4472 272.173 18.4759C270.997 18.4462 269.839 18.7723 268.851 19.4114C267.91 20.0504 267.158 20.9305 266.673 21.9598C266.131 23.1005 265.855 24.3498 265.867 25.613C265.857 26.8837 266.132 28.1405 266.673 29.2904C267.15 30.3309 267.903 31.2207 268.851 31.863C269.837 32.5082 270.996 32.8374 272.173 32.8065C273.361 32.8363 274.53 32.5075 275.528 31.863Z" fill="white"/>
<path d="M321.189 40C318.898 40.043 316.648 39.3876 314.738 38.121C312.86 36.8503 311.359 35.0983 310.391 33.0484C309.319 30.7816 308.786 28.2974 308.835 25.7903C308.788 23.1779 309.416 20.5976 310.657 18.2984C311.865 16.1081 313.657 14.2962 315.835 13.0645C318.258 11.734 320.99 11.069 323.754 11.1371C326.498 11.0557 329.214 11.713 331.617 13.0403C333.737 14.2696 335.468 16.0726 336.609 18.242C337.789 20.5206 338.387 23.0554 338.351 25.621V39.3307H330.206V35.992C330.206 35.992 327.625 40 321.189 40ZM323.665 32.8065C324.834 32.8294 325.983 32.5006 326.964 31.8629C327.924 31.2229 328.677 30.3181 329.133 29.2581C329.646 28.0924 329.902 26.8299 329.883 25.5565C329.901 24.317 329.645 23.0888 329.133 21.9597C328.662 20.9243 327.911 20.0415 326.964 19.4113C325.981 18.7796 324.833 18.454 323.665 18.4758C322.469 18.4509 321.292 18.776 320.278 19.4113C319.316 20.0328 318.552 20.9172 318.077 21.9597C317.565 23.0888 317.309 24.317 317.327 25.5565C317.308 26.8299 317.564 28.0924 318.077 29.2581C318.536 30.3251 319.303 31.2316 320.278 31.8629C321.289 32.5046 322.468 32.8329 323.665 32.8065Z" fill="white"/>
<path d="M345.246 39.3549V18.6372H340.633V11.8227H345.246C345.246 8.73343 346.473 5.77061 348.656 3.58543C350.84 1.40026 353.802 0.171571 356.891 0.169434H360.528V6.99201H357.891C356.755 6.99201 355.666 7.44318 354.863 8.24626C354.06 9.04934 353.609 10.1385 353.609 11.2743V11.8227H360.528V18.6372H353.609V39.3549H345.246Z" fill="white"/>
<path d="M363.117 18.6372V11.8227H383.569V18.6372H363.117ZM375.948 27.6776V28.226C375.948 28.7883 376.058 29.3451 376.273 29.8647C376.489 30.3842 376.804 30.8563 377.202 31.254C377.599 31.6516 378.071 31.967 378.591 32.1822C379.111 32.3974 379.667 32.5082 380.23 32.5082H383.569V39.3227H379.278C377.748 39.3238 376.233 39.0234 374.819 38.4386C373.406 37.8539 372.121 36.9963 371.039 35.9148C369.956 34.8333 369.098 33.5492 368.512 32.1358C367.926 30.7225 367.625 29.2075 367.625 27.6776V5.09692H375.948V27.6776Z" fill="white"/>
<path d="M299.31 39.3791H290.988V23.5485C290.988 20.4593 292.214 17.4964 294.398 15.3113C296.582 13.1261 299.544 11.8974 302.633 11.8953H307.085V18.7179H303.593C302.456 18.7178 301.366 19.1687 300.562 19.9716C299.757 20.7744 299.305 21.8636 299.302 23.0001V39.3791H299.31Z" fill="white"/>
</g>
<defs>
<clipPath id="clip0_1671_18113">
<rect width="383.137" height="40" fill="white" transform="translate(0.431396)"/>
</clipPath>
</defs>
</svg>
