<svg width="61" height="60" viewBox="0 0 61 60" fill="none" xmlns="http://www.w3.org/2000/svg">
<path fill-rule="evenodd" clip-rule="evenodd" d="M6.41602 7.5C6.41602 4.73858 8.65459 2.5 11.416 2.5H36.416C37.7967 2.5 38.916 3.61929 38.916 5C38.916 6.38071 37.7967 7.5 36.416 7.5H11.416V52.5H46.416V25.0058C46.416 23.625 47.5353 22.5058 48.916 22.5058C50.2967 22.5058 51.416 23.625 51.416 25.0058V52.5C51.416 55.2615 49.1775 57.5 46.416 57.5H11.416C8.65462 57.5 6.41602 55.2615 6.41602 52.5V7.5ZM53.1827 5.73321C54.159 6.70952 54.159 8.29243 53.1827 9.26875L38.1893 24.2623C37.213 25.2386 35.6301 25.2386 34.6538 24.2623C33.6774 23.286 33.6774 21.7031 34.6537 20.7267L49.6471 5.73323C50.6234 4.75691 52.2063 4.75691 53.1827 5.73321ZM13.916 22.5C13.916 21.1193 15.0353 20 16.416 20H26.416C27.7967 20 28.916 21.1193 28.916 22.5C28.916 23.8807 27.7967 25 26.416 25H16.416C15.0353 25 13.916 23.8807 13.916 22.5ZM13.916 35C13.916 33.6193 15.0353 32.5 16.416 32.5H31.416C32.7967 32.5 33.916 33.6193 33.916 35C33.916 36.3807 32.7967 37.5 31.416 37.5H16.416C15.0353 37.5 13.916 36.3807 13.916 35Z" fill="white"/>
</svg>
