<svg width="95" height="96" viewBox="0 0 95 96" fill="none" xmlns="http://www.w3.org/2000/svg">
<path fill-rule="evenodd" clip-rule="evenodd" d="M34.4724 66.3239H5.77593C4.50818 66.3239 3.29236 65.8203 2.39592 64.9239C1.49948 64.0274 0.99585 62.8116 0.99585 61.5438V16.1337V12.947V5.77618C0.99585 4.50842 1.49948 3.29259 2.39592 2.39615C3.29236 1.49971 4.50818 0.996094 5.77593 0.996094H80.6639C81.9317 0.996094 83.1475 1.49971 84.0439 2.39615C84.9403 3.29259 85.444 4.50842 85.444 5.77618V12.947V16.1337V42.6466L90.3117 47.5143L88.7622 50.6214C90.0644 52.8347 91.0524 55.2183 91.6979 57.7038L94.9882 58.8033V70.6579L91.6979 71.7573C91.0524 74.2428 90.0644 76.6265 88.7622 78.8398L90.3117 81.9468L81.9466 90.312L78.8395 88.7624C76.6271 90.0663 74.2431 91.0545 71.757 91.6982L70.6576 95.0044H58.803L57.7036 91.7141C55.2175 91.0704 52.8336 90.0822 50.6211 88.7784L47.5141 90.3279L39.1489 81.9628L40.6985 78.8557C39.3963 76.6424 38.4082 74.2587 37.7627 71.7732L34.4724 70.6738V66.3239ZM34.4724 63.1372H5.77593C5.35335 63.1372 4.94809 62.9693 4.64928 62.6705C4.35047 62.3717 4.18257 61.9664 4.18257 61.5438V16.1337H82.2573V39.4599L81.9466 39.1492L78.8395 40.6987C76.6271 39.3948 74.2431 38.4067 71.757 37.7629L70.6576 34.4726H58.803L57.7036 37.7629C55.2175 38.4067 52.8336 39.3948 50.6211 40.6987L47.5141 39.1492L39.1489 47.5143L40.6985 50.6214C39.3963 52.8347 38.4082 55.2183 37.7627 57.7038L34.4724 58.8033V63.1372ZM4.18257 5.77618V12.947H82.2573V5.77618C82.2573 5.35359 82.0894 4.94831 81.7906 4.6495C81.4917 4.35069 81.0865 4.18282 80.6639 4.18282H5.77593C5.35335 4.18282 4.94809 4.35069 4.64928 4.6495C4.35047 4.94831 4.18257 5.35359 4.18257 5.77618ZM8.16601 50.39H30.4731V39.2364H20.9129V32.0665H17.7262V39.2364H8.16601V50.39ZM17.7262 42.4232H11.3527V47.2032H27.2863V42.4232H20.9129V42.4233H17.7262V42.4232ZM59.1535 32.8639H36.8464V28.0832H24.8962V24.8965H36.8464V20.117H59.1535V32.8639ZM40.0332 29.6772L40.0332 28.0832V24.8965L40.0332 23.3037H55.9668V29.6772H40.0332ZM8.20584 55.9677H11.3926V52.781H8.16601L8.20584 55.9677ZM30.4731 52.781H14.1411V55.9677H30.4731V52.781ZM8.16601 58.3573H30.4731V61.5441H8.16601V58.3573ZM56.8033 56.7631H53.6166L53.5768 53.5764H56.8033V56.7631ZM59.5519 53.5764H75.8838V56.7631H59.5519V53.5764ZM75.8838 59.1542H53.5768V62.3409H75.8838V59.1542ZM63.137 20.117H78.2739V23.3037H63.137V20.117ZM78.2739 27.287H63.137V30.4737H78.2739V27.287ZM68.3632 91.8177H61.0975L60.1653 89.0174L59.285 88.8182C56.5412 88.2021 53.9242 87.1174 51.5492 85.6116L50.7884 85.1296L48.1434 86.4521L43.0088 81.3175L44.3313 78.6725L43.8493 77.9117C42.3498 75.5342 41.2717 72.9159 40.6626 70.1719L40.4634 69.2955L37.675 68.3634V61.0977L40.4634 60.1656L40.6626 59.2892C41.2717 56.5452 42.3498 53.9269 43.8493 51.5495L44.3313 50.7887L43.0088 48.1437L48.1434 43.0091L50.7884 44.3316L51.5492 43.8496C53.9242 42.3438 56.5412 41.259 59.285 40.6429L60.1653 40.4438L61.0975 37.6554H68.3632L69.2953 40.4438L70.1756 40.6429C72.9194 41.259 75.5364 42.3438 77.9114 43.8496L78.6722 44.3316L81.3172 43.0091L86.4518 48.1437L85.1293 50.7887L85.6113 51.5495C87.1108 53.9269 88.1889 56.5452 88.798 59.2892L88.9972 60.1656L91.7856 61.0977V68.3754L88.9972 69.3075L88.798 70.1839C88.1889 72.9279 87.1108 75.5462 85.6113 77.9236L85.1293 78.6844L86.4518 81.3294L81.3172 86.464L78.6722 85.1415L77.9114 85.6235C75.5364 87.1293 72.9194 88.2141 70.1756 88.8302L69.2953 89.0293L68.3632 91.8177ZM83.0539 83.0537H46.4066V46.4064H83.0539V83.0537ZM49.5933 79.867H79.8672V49.5931H49.5933V79.867ZM6.97095 6.97083H10.1577V10.1575H6.97095V6.97083ZM16.9295 6.97083H13.7428V10.1575H16.9295V6.97083ZM20.5145 6.97083H23.7012V10.1575H20.5145V6.97083Z" fill="white"/>
</svg>
