<svg width="96" height="96" viewBox="0 0 96 96" fill="none" xmlns="http://www.w3.org/2000/svg">
<path fill-rule="evenodd" clip-rule="evenodd" d="M34.8548 9.48602C34.4819 9.35418 34.1248 9.17588 33.7924 8.95379C33.0063 8.42855 32.3937 7.682 32.0319 6.80856C31.6701 5.93511 31.5754 4.974 31.7599 4.04676C31.9443 3.11951 32.3996 2.26778 33.0681 1.59928C33.7366 0.93077 34.5883 0.475509 35.5156 0.291068C36.4428 0.106628 37.4039 0.201292 38.2774 0.563085C39.1508 0.924878 39.8974 1.53755 40.4226 2.32363C40.9479 3.10971 41.2282 4.03389 41.2282 4.9793C41.2282 6.24706 40.7246 7.46289 39.8281 8.35933C39.3192 8.86825 38.7074 9.25056 38.0415 9.486V12.9462H42.8216V16.1329H30.0747V12.9462H34.8548V9.48602ZM36.4481 3.38594C36.133 3.38594 35.8249 3.47939 35.5629 3.65447C35.3009 3.82955 35.0966 4.0784 34.976 4.36955C34.8554 4.6607 34.8239 4.98107 34.8854 5.29015C34.9469 5.59924 35.0986 5.88315 35.3215 6.10598C35.5443 6.32882 35.8282 6.48057 36.1372 6.54205C36.4463 6.60353 36.7667 6.57197 37.0579 6.45137C37.349 6.33078 37.5979 6.12655 37.773 5.86453C37.948 5.6025 38.0415 5.29444 38.0415 4.9793C38.0415 4.55672 37.8736 4.15144 37.5748 3.85263C37.276 3.55381 36.8707 3.38594 36.4481 3.38594ZM49.5933 0.995997H46.4066V16.4062C45.7372 16.6429 45.1261 17.0268 44.62 17.5329C43.9515 18.2014 43.4962 19.0531 43.3118 19.9804C43.1273 20.9076 43.222 21.8687 43.5838 22.7422C43.9456 23.6156 44.5582 24.3622 45.3443 24.8874C46.1304 25.4126 47.0546 25.693 48 25.693C49.2677 25.693 50.4836 25.1894 51.38 24.2929C52.2764 23.3965 52.7801 22.1807 52.7801 20.9129C52.7801 19.9675 52.4997 19.0433 51.9745 18.2572C51.4492 17.4712 50.7027 16.8585 49.8292 16.4967C49.7513 16.4644 49.6726 16.4342 49.5933 16.4062V0.995997ZM47.1148 19.5881C47.3768 19.413 47.6848 19.3195 48 19.3195C48.4226 19.3195 48.8278 19.4874 49.1266 19.7862C49.4255 20.085 49.5933 20.4903 49.5933 20.9129C49.5933 21.228 49.4999 21.5361 49.3248 21.7981C49.1498 22.0602 48.9009 22.2644 48.6097 22.385C48.3186 22.5056 47.9982 22.5371 47.6891 22.4757C47.38 22.4142 47.0962 22.2624 46.8733 22.0396C46.6505 21.8167 46.4987 21.5328 46.4373 21.2238C46.3758 20.9147 46.4073 20.5943 46.5279 20.3032C46.6485 20.012 46.8527 19.7632 47.1148 19.5881ZM2.32356 40.821C3.10964 41.3462 4.03383 41.6266 4.97924 41.6266C6.24699 41.6266 7.46281 41.123 8.35925 40.2265C8.8682 39.7176 9.25054 39.1057 9.48597 38.4398H12.946V42.8217H16.1328V17.3279C16.1328 17.011 16.2587 16.707 16.4828 16.4829C16.7069 16.2588 17.0108 16.1329 17.3278 16.1329H19.7178V12.9462H17.3278C16.1657 12.9462 15.0512 13.4078 14.2294 14.2296C13.4077 15.0513 12.946 16.1658 12.946 17.3279V35.253H9.48591C9.35408 34.8802 9.1758 34.5232 8.95374 34.1908C8.4285 33.4048 7.68193 32.7921 6.80848 32.4303C5.93503 32.0685 4.97394 31.9738 4.0467 32.1583C3.11945 32.3427 2.26774 32.798 1.59923 33.4665C0.930723 34.135 0.475449 34.9867 0.291009 35.914C0.106568 36.8412 0.201227 37.8023 0.56302 38.6758C0.924813 39.5492 1.53747 40.2958 2.32356 40.821ZM4.09401 35.5217C4.35604 35.3466 4.6641 35.2531 4.97924 35.2531C5.40182 35.2531 5.80708 35.421 6.10589 35.7198C6.4047 36.0186 6.5726 36.4239 6.5726 36.8465C6.5726 37.1616 6.47917 37.4697 6.30409 37.7317C6.12901 37.9938 5.88015 38.198 5.589 38.3186C5.29785 38.4392 4.97746 38.4707 4.66838 38.4093C4.35929 38.3478 4.07542 38.196 3.85258 37.9732C3.62975 37.7504 3.47799 37.4664 3.41651 37.1574C3.35503 36.8483 3.38655 36.5279 3.50715 36.2368C3.62775 35.9456 3.83198 35.6968 4.09401 35.5217ZM18.2572 51.9744C19.0432 52.4997 19.9674 52.78 20.9128 52.78C22.1806 52.78 23.3964 52.2764 24.2928 51.38C25.1893 50.4835 25.6929 49.2677 25.6929 47.9999C25.6929 47.0545 25.4126 46.1303 24.8873 45.3443C24.3621 44.5582 23.6155 43.9455 22.7421 43.5837C21.8686 43.2219 20.9075 43.1273 19.9803 43.3117C19.0531 43.4961 18.2013 43.9514 17.5328 44.6199C17.0267 45.126 16.6429 45.7371 16.4062 46.4065H0.995844V49.5932H16.4061C16.4341 49.6725 16.4643 49.7512 16.4966 49.8292C16.8584 50.7026 17.4711 51.4492 18.2572 51.9744ZM20.0276 46.6751C20.2896 46.5 20.5977 46.4066 20.9128 46.4066C21.3354 46.4066 21.7407 46.5744 22.0395 46.8733C22.3383 47.1721 22.5062 47.5773 22.5062 47.9999C22.5062 48.3151 22.4128 48.6231 22.2377 48.8852C22.0626 49.1472 21.8138 49.3514 21.5226 49.472C21.2315 49.5926 20.9111 49.6241 20.602 49.5627C20.2929 49.5012 20.009 49.3494 19.7862 49.1266C19.5634 48.9038 19.4116 48.6199 19.3501 48.3108C19.2886 48.0017 19.3202 47.6813 19.4408 47.3902C19.5613 47.099 19.7656 46.8502 20.0276 46.6751ZM72.6107 51.9744C73.3968 52.4997 74.3209 52.78 75.2663 52.78C76.5341 52.78 77.75 52.2764 78.6464 51.38C79.1554 50.871 79.5377 50.2591 79.7731 49.5932H95.1834V46.4065H79.773C79.6412 46.0336 79.4629 45.6766 79.2409 45.3443C78.7156 44.5582 77.9691 43.9455 77.0956 43.5837C76.2222 43.2219 75.2611 43.1273 74.3338 43.3117C73.4066 43.4961 72.5548 43.9514 71.8863 44.6199C71.2178 45.2884 70.7626 46.1401 70.5781 47.0674C70.3937 47.9946 70.4883 48.9557 70.8501 49.8292C71.2119 50.7026 71.8246 51.4492 72.6107 51.9744ZM74.3811 46.6751C74.6432 46.5 74.9512 46.4066 75.2663 46.4066C75.6889 46.4066 76.0942 46.5744 76.3931 46.8733C76.6919 47.1721 76.8597 47.5773 76.8597 47.9999C76.8597 48.3151 76.7663 48.6231 76.5912 48.8852C76.4161 49.1472 76.1673 49.3514 75.8761 49.472C75.585 49.5926 75.2646 49.6241 74.9555 49.5627C74.6465 49.5012 74.3625 49.3494 74.1397 49.1266C73.9169 48.9038 73.7651 48.6199 73.7036 48.3108C73.6421 48.0017 73.6737 47.6813 73.7943 47.3902C73.9149 47.099 74.1191 46.8502 74.3811 46.6751ZM68.4481 24.8874C69.2341 25.4126 70.1583 25.693 71.1037 25.693C72.3715 25.693 73.5873 25.1894 74.4837 24.2929C75.3802 23.3965 75.8838 22.1807 75.8838 20.9129C75.8838 19.9675 75.6035 19.0433 75.0782 18.2572C74.553 17.4712 73.8064 16.8585 72.933 16.4967C72.855 16.4644 72.7764 16.4342 72.6971 16.4062V0.995997H69.5104V16.4062C68.841 16.6429 68.2298 17.0268 67.7237 17.5329C67.0552 18.2014 66.5999 19.0531 66.4155 19.9804C66.2311 20.9076 66.3257 21.8687 66.6875 22.7422C67.0493 23.6156 67.662 24.3622 68.4481 24.8874ZM70.2185 19.5881C70.4805 19.413 70.7886 19.3195 71.1037 19.3195C71.5263 19.3195 71.9316 19.4874 72.2304 19.7862C72.5292 20.085 72.6971 20.4903 72.6971 20.9129C72.6971 21.228 72.6037 21.5361 72.4286 21.7981C72.2535 22.0602 72.0046 22.2644 71.7135 22.385C71.4223 22.5056 71.102 22.5371 70.7929 22.4757C70.4838 22.4142 70.1999 22.2624 69.9771 22.0396C69.7542 21.8167 69.6025 21.5328 69.541 21.2238C69.4795 20.9147 69.511 20.5943 69.6316 20.3032C69.7522 20.012 69.9565 19.7632 70.2185 19.5881ZM22.2406 24.8874C23.0267 25.4126 23.9509 25.693 24.8963 25.693C26.164 25.693 27.3798 25.1894 28.2763 24.2929C29.1727 23.3965 29.6764 22.1807 29.6764 20.9129C29.6764 19.9675 29.396 19.0433 28.8708 18.2572C28.3455 17.4712 27.599 16.8585 26.7255 16.4967C26.6476 16.4644 26.5689 16.4342 26.4896 16.4062V0.995997H23.3029V16.4062C22.6335 16.6429 22.0224 17.0268 21.5163 17.5329C20.8478 18.2014 20.3925 19.0531 20.208 19.9804C20.0236 20.9076 20.1183 21.8687 20.4801 22.7422C20.8418 23.6156 21.4545 24.3622 22.2406 24.8874ZM24.011 19.5881C24.2731 19.413 24.5811 19.3195 24.8963 19.3195C25.3189 19.3195 25.7241 19.4874 26.0229 19.7862C26.3217 20.085 26.4896 20.4903 26.4896 20.9129C26.4896 21.228 26.3962 21.5361 26.2211 21.7981C26.046 22.0602 25.7972 22.2644 25.506 22.385C25.2149 22.5056 24.8945 22.5371 24.5854 22.4757C24.2763 22.4142 23.9925 22.2624 23.7696 22.0396C23.5468 21.8167 23.395 21.5328 23.3335 21.2238C23.2721 20.9147 23.3036 20.5943 23.4242 20.3032C23.5448 20.012 23.749 19.7632 24.011 19.5881ZM57.9585 9.48601C57.5856 9.35417 57.2285 9.17587 56.8962 8.95379C56.1101 8.42855 55.4974 7.682 55.1356 6.80856C54.7738 5.93511 54.6792 4.974 54.8636 4.04676C55.0481 3.11951 55.5033 2.26778 56.1718 1.59928C56.8404 0.93077 57.6921 0.475509 58.6193 0.291068C59.5466 0.106628 60.5077 0.201292 61.3811 0.563085C62.2545 0.924878 63.0011 1.53755 63.5264 2.32363C64.0516 3.10971 64.3319 4.03389 64.3319 4.9793C64.3319 6.24706 63.8283 7.46289 62.9319 8.35933C62.4229 8.86826 61.8111 9.25057 61.1452 9.48601V12.9462H65.9253V16.1329H53.1784V12.9462H57.9585V9.48601ZM59.5519 3.38594C59.2367 3.38594 58.9287 3.47939 58.6666 3.65447C58.4046 3.82955 58.2004 4.0784 58.0798 4.36955C57.9592 4.6607 57.9277 4.98107 57.9891 5.29015C58.0506 5.59924 58.2024 5.88315 58.4252 6.10598C58.648 6.32882 58.9319 6.48057 59.241 6.54205C59.5501 6.60353 59.8705 6.57197 60.1616 6.45137C60.4528 6.33078 60.7016 6.12655 60.8767 5.86453C61.0518 5.6025 61.1452 5.29444 61.1452 4.9793C61.1452 4.55672 60.9773 4.15144 60.6785 3.85263C60.3797 3.55381 59.9744 3.38594 59.5519 3.38594ZM91.0207 41.6266C90.0753 41.6266 89.1511 41.3462 88.3651 40.821C87.579 40.2958 86.9663 39.5492 86.6045 38.6758C86.5722 38.5978 86.542 38.5191 86.514 38.4398H83.0539V42.8217H79.8672L79.8672 38.4398V35.253L79.8672 17.3279C79.8672 17.011 79.7413 16.707 79.5172 16.4829C79.2931 16.2588 78.9891 16.1329 78.6722 16.1329H76.2822V12.9462H78.6722C79.8343 12.9462 80.9488 13.4078 81.7706 14.2296C82.5923 15.0513 83.0539 16.1658 83.0539 17.3279V35.253H86.5141C86.7508 34.5837 87.1346 33.9726 87.6407 33.4665C88.3092 32.798 89.1609 32.3427 90.0882 32.1583C91.0154 31.9738 91.9765 32.0685 92.85 32.4303C93.7234 32.7921 94.47 33.4048 94.9952 34.1908C95.5205 34.9769 95.8008 35.9011 95.8008 36.8465C95.8008 38.1143 95.2972 39.3301 94.4007 40.2265C93.5043 41.123 92.2885 41.6266 91.0207 41.6266ZM91.0207 35.2531C90.7056 35.2531 90.3975 35.3466 90.1355 35.5217C89.8735 35.6968 89.6692 35.9456 89.5486 36.2368C89.428 36.5279 89.3965 36.8483 89.458 37.1574C89.5195 37.4664 89.6712 37.7504 89.8941 37.9732C90.1169 38.196 90.4008 38.3478 90.7099 38.4093C91.019 38.4707 91.3393 38.4392 91.6305 38.3186C91.9216 38.198 92.1705 37.9938 92.3456 37.7317C92.5207 37.4697 92.6141 37.1616 92.6141 36.8465C92.6141 36.4239 92.4462 36.0186 92.1474 35.7198C91.8486 35.421 91.4433 35.2531 91.0207 35.2531ZM4.97924 63.858C4.03383 63.858 3.10964 63.5777 2.32356 63.0524C1.53747 62.5272 0.924813 61.7806 0.56302 60.9072C0.201227 60.0337 0.106568 59.0726 0.291009 58.1454C0.475449 57.2181 0.930723 56.3664 1.59923 55.6979C2.26774 55.0294 3.11945 54.5741 4.0467 54.3897C4.97394 54.2052 5.93503 54.2999 6.80848 54.6617C7.68193 55.0235 8.4285 55.6362 8.95374 56.4222C9.1758 56.7546 9.35408 57.1116 9.48592 57.4845H12.946V53.1027H16.1328V78.5964C16.1328 78.9134 16.2587 79.2173 16.4828 79.4415C16.7069 79.6656 17.0108 79.7915 17.3278 79.7915H19.7178V82.9782H17.3278C16.1657 82.9782 15.0512 82.5165 14.2294 81.6948C13.4077 80.8731 12.946 79.7586 12.946 78.5964V60.6712H9.48597C9.25053 61.3371 8.8682 61.949 8.35925 62.458C7.46281 63.3544 6.24699 63.858 4.97924 63.858ZM4.97924 57.4846C4.6641 57.4846 4.35604 57.578 4.09401 57.7531C3.83198 57.9282 3.62775 58.177 3.50715 58.4682C3.38655 58.7593 3.35503 59.0797 3.41651 59.3888C3.47799 59.6979 3.62975 59.9818 3.85258 60.2046C4.07542 60.4274 4.35929 60.5792 4.66838 60.6407C4.97746 60.7022 5.29785 60.6706 5.589 60.55C5.88015 60.4294 6.12901 60.2252 6.30409 59.9631C6.47917 59.7011 6.5726 59.3931 6.5726 59.0779C6.5726 58.6553 6.4047 58.2501 6.10589 57.9512C5.80708 57.6524 5.40182 57.4846 4.97924 57.4846ZM45.3443 78.986C45.6767 79.2081 46.0337 79.3864 46.4066 79.5182V94.9284H49.5933V79.5182C50.2592 79.2828 50.8711 78.9005 51.38 78.3916C52.2764 77.4951 52.7801 76.2793 52.7801 75.0115C52.7801 74.0661 52.4997 73.1419 51.9745 72.3559C51.4492 71.5698 50.7027 70.9571 49.8292 70.5953C48.9558 70.2335 47.9947 70.1388 47.0674 70.3233C46.1402 70.5077 45.2885 70.963 44.62 71.6315C43.9515 72.3 43.4962 73.1517 43.3118 74.079C43.1273 75.0062 43.222 75.9673 43.5838 76.8408C43.9456 77.7142 44.5582 78.4608 45.3443 78.986ZM47.1148 73.6867C47.3768 73.5116 47.6848 73.4182 48 73.4182C48.4226 73.4182 48.8278 73.586 49.1266 73.8848C49.4255 74.1837 49.5933 74.5889 49.5933 75.0115C49.5933 75.3267 49.4999 75.6347 49.3248 75.8967C49.1498 76.1588 48.9009 76.363 48.6097 76.4836C48.3186 76.6042 47.9982 76.6357 47.6891 76.5743C47.38 76.5128 47.0962 76.361 46.8733 76.1382C46.6505 75.9154 46.4987 75.6315 46.4373 75.3224C46.3758 75.0133 46.4073 74.6929 46.5279 74.4018C46.6485 74.1106 46.8527 73.8618 47.1148 73.6867ZM68.4481 78.986C68.7804 79.2081 69.1375 79.3864 69.5104 79.5182V94.9284H72.6971V79.5182C73.363 79.2828 73.9748 78.9005 74.4837 78.3916C75.3802 77.4951 75.8838 76.2793 75.8838 75.0115C75.8838 74.0661 75.6035 73.1419 75.0782 72.3559C74.553 71.5698 73.8064 70.9571 72.933 70.5953C72.0595 70.2335 71.0984 70.1388 70.1712 70.3233C69.2439 70.5077 68.3922 70.963 67.7237 71.6315C67.0552 72.3 66.5999 73.1517 66.4155 74.079C66.2311 75.0062 66.3257 75.9673 66.6875 76.8408C67.0493 77.7142 67.662 78.4608 68.4481 78.986ZM70.2185 73.6867C70.4805 73.5116 70.7886 73.4182 71.1037 73.4182C71.5263 73.4182 71.9316 73.586 72.2304 73.8848C72.5292 74.1837 72.6971 74.5889 72.6971 75.0115C72.6971 75.3267 72.6037 75.6347 72.4286 75.8967C72.2535 76.1588 72.0046 76.363 71.7135 76.4836C71.4223 76.6042 71.102 76.6357 70.7929 76.5743C70.4838 76.5128 70.1999 76.361 69.9771 76.1382C69.7542 75.9154 69.6025 75.6315 69.541 75.3224C69.4795 75.0133 69.511 74.6929 69.6316 74.4018C69.7522 74.1106 69.9565 73.8618 70.2185 73.6867ZM22.2406 78.986C22.573 79.2081 22.93 79.3864 23.3029 79.5182V94.9284H26.4896V79.5182C27.1555 79.2828 27.7674 78.9005 28.2763 78.3916C29.1727 77.4951 29.6764 76.2793 29.6764 75.0115C29.6764 74.0661 29.396 73.1419 28.8708 72.3559C28.3455 71.5698 27.599 70.9571 26.7255 70.5953C25.8521 70.2335 24.891 70.1388 23.9637 70.3233C23.0365 70.5077 22.1848 70.963 21.5163 71.6315C20.8478 72.3 20.3925 73.1517 20.208 74.079C20.0236 75.0062 20.1183 75.9673 20.4801 76.8408C20.8418 77.7142 21.4545 78.4608 22.2406 78.986ZM24.011 73.6867C24.2731 73.5116 24.5811 73.4182 24.8963 73.4182C25.3189 73.4182 25.7241 73.586 26.0229 73.8848C26.3217 74.1837 26.4896 74.5889 26.4896 75.0115C26.4896 75.3267 26.3962 75.6347 26.2211 75.8967C26.046 76.1588 25.7972 76.363 25.506 76.4836C25.2149 76.6042 24.8945 76.6357 24.5854 76.5743C24.2763 76.5128 23.9925 76.361 23.7696 76.1382C23.5468 75.9154 23.395 75.6315 23.3335 75.3224C23.2721 75.0133 23.3036 74.6929 23.4242 74.4018C23.5448 74.1106 23.749 73.8618 24.011 73.6867ZM36.4481 95.7252C35.5027 95.7252 34.5785 95.4449 33.7924 94.9196C33.0063 94.3944 32.3937 93.6478 32.0319 92.7744C31.6701 91.9009 31.5754 90.9398 31.7599 90.0126C31.9443 89.0853 32.3996 88.2336 33.0681 87.5651C33.5742 87.059 34.1854 86.6751 34.8548 86.4384V82.9785H30.0747V79.7918H34.8548H38.0415H42.8216V82.9785H38.0415V86.4384C38.1208 86.4664 38.1994 86.4966 38.2774 86.5289C39.1508 86.8907 39.8974 87.5034 40.4226 88.2895C40.9479 89.0755 41.2282 89.9997 41.2282 90.9451C41.2282 92.2129 40.7246 93.4287 39.8281 94.3252C38.9317 95.2216 37.7159 95.7252 36.4481 95.7252ZM36.4481 89.3518C36.133 89.3518 35.8249 89.4452 35.5629 89.6203C35.3009 89.7954 35.0966 90.0442 34.976 90.3354C34.8554 90.6265 34.8239 90.9469 34.8854 91.256C34.9469 91.5651 35.0986 91.849 35.3215 92.0718C35.5443 92.2946 35.8282 92.4464 36.1372 92.5079C36.4463 92.5694 36.7667 92.5378 37.0579 92.4172C37.349 92.2966 37.5979 92.0924 37.773 91.8303C37.948 91.5683 38.0415 91.2603 38.0415 90.9451C38.0415 90.5225 37.8736 90.1173 37.5748 89.8184C37.276 89.5196 36.8707 89.3518 36.4481 89.3518ZM59.5519 95.7252C58.6064 95.7252 57.6823 95.4449 56.8962 94.9196C56.1101 94.3944 55.4974 93.6478 55.1356 92.7744C54.7738 91.9009 54.6792 90.9398 54.8636 90.0126C55.0481 89.0853 55.5033 88.2336 56.1718 87.5651C56.678 87.059 57.2891 86.6751 57.9585 86.4384V82.9785H53.1784V79.7918H57.9585H61.1452H65.9253V82.9785H61.1452V86.4384C61.2245 86.4664 61.3031 86.4966 61.3811 86.5289C62.2545 86.8907 63.0011 87.5034 63.5264 88.2895C64.0516 89.0755 64.3319 89.9997 64.3319 90.9451C64.3319 92.2129 63.8283 93.4287 62.9319 94.3252C62.0354 95.2216 60.8196 95.7252 59.5519 95.7252ZM59.5519 89.3518C59.2367 89.3518 58.9287 89.4452 58.6666 89.6203C58.4046 89.7954 58.2004 90.0442 58.0798 90.3354C57.9592 90.6265 57.9277 90.9469 57.9891 91.256C58.0506 91.5651 58.2024 91.849 58.4252 92.0718C58.648 92.2946 58.9319 92.4464 59.241 92.5079C59.5501 92.5694 59.8705 92.5378 60.1616 92.4172C60.4528 92.2966 60.7016 92.0924 60.8767 91.8303C61.0518 91.5683 61.1452 91.2603 61.1452 90.9451C61.1452 90.5225 60.9773 90.1173 60.6785 89.8184C60.3797 89.5196 59.9744 89.3518 59.5519 89.3518ZM91.0207 63.858C90.0753 63.858 89.1511 63.5777 88.3651 63.0524C87.579 62.5272 86.9663 61.7806 86.6045 60.9072C86.5722 60.8292 86.542 60.7505 86.514 60.6712H83.0539V78.5964C83.0539 79.7586 82.5923 80.8731 81.7706 81.6948C80.9488 82.5165 79.8343 82.9782 78.6722 82.9782H76.2822V79.7915H78.6722C78.9891 79.7915 79.2931 79.6656 79.5172 79.4415C79.7413 79.2173 79.8672 78.9134 79.8672 78.5964L79.8672 60.6712V57.4845L79.8672 53.1027H83.0539V57.4845H86.5141C86.7508 56.8151 87.1346 56.204 87.6407 55.6979C88.3092 55.0294 89.1609 54.5741 90.0882 54.3897C91.0154 54.2052 91.9765 54.2999 92.85 54.6617C93.7234 55.0235 94.47 55.6362 94.9952 56.4222C95.5205 57.2083 95.8008 58.1325 95.8008 59.0779C95.8008 60.3457 95.2972 61.5615 94.4007 62.458C93.5043 63.3544 92.2885 63.858 91.0207 63.858ZM91.0207 57.4846C90.7056 57.4846 90.3975 57.578 90.1355 57.7531C89.8735 57.9282 89.6692 58.177 89.5486 58.4682C89.428 58.7593 89.3965 59.0797 89.458 59.3888C89.5195 59.6979 89.6712 59.9818 89.8941 60.2046C90.1169 60.4274 90.4008 60.5792 90.7099 60.6407C91.019 60.7022 91.3393 60.6706 91.6305 60.55C91.9216 60.4294 92.1705 60.2252 92.3456 59.9631C92.5207 59.7011 92.6141 59.3931 92.6141 59.0779C92.6141 58.6553 92.4462 58.2501 92.1474 57.9512C91.8486 57.6524 91.4433 57.4846 91.0207 57.4846ZM63.9336 66.3239H32.0664V64.7305C32.0664 64.5192 31.9824 64.3166 31.833 64.1672C31.6836 64.0178 31.481 63.9338 31.2697 63.9338H29.6763V32.0666H31.2697C31.481 32.0666 31.6836 31.9827 31.833 31.8333C31.9824 31.6839 32.0664 31.4812 32.0664 31.2699V29.6766H63.9336V31.2699C63.9336 31.4812 64.0175 31.6839 64.1669 31.8333C64.3164 31.9827 64.519 32.0666 64.7303 32.0666H66.3236V63.9338H64.7303C64.519 63.9338 64.3164 64.0178 64.1669 64.1672C64.0175 64.3166 63.9336 64.5192 63.9336 64.7305V66.3239ZM34.9225 63.1372H61.0775C61.483 62.2178 62.2176 61.4833 63.1369 61.0777V34.9227C62.2176 34.5172 61.483 33.7827 61.0775 32.8633H34.9225C34.517 33.7827 33.7824 34.5172 32.8631 34.9227V61.0777C33.7824 61.4833 34.517 62.2178 34.9225 63.1372ZM47.4822 58.2097H50.6689V49.5932V46.4065V37.7908H38.8661V46.4065V49.5932V58.2097H42.0528V49.5932H47.4822V58.2097ZM42.0528 40.9775V46.4065H47.4822V40.9775H42.0528ZM53.9472 37.7908H57.1339V58.2137H53.9472V37.7908Z" fill="white"/>
</svg>
