<svg width="94" height="96" viewBox="0 0 94 96" fill="none" xmlns="http://www.w3.org/2000/svg">
<path fill-rule="evenodd" clip-rule="evenodd" d="M79.8672 39.2063V5.77618C79.8672 5.35359 79.6993 4.94831 79.4005 4.6495C79.1017 4.35069 78.6965 4.18282 78.2739 4.18282H12.9461C12.5235 4.18282 12.1182 4.35069 11.8194 4.6495C11.5206 4.94831 11.3527 5.35359 11.3527 5.77618V16.9297H37.6432C38.9109 16.9297 40.1268 17.4333 41.0232 18.3297C41.9197 19.2262 42.4232 20.442 42.4232 21.7098V44.0168C42.4232 45.2846 41.9197 46.5004 41.0232 47.3969C40.1268 48.2933 38.9109 48.7969 37.6432 48.7969H11.3527V90.224C11.3527 90.6466 11.5206 91.0519 11.8194 91.3507C12.1182 91.6495 12.5235 91.8174 12.9461 91.8174H78.2739C78.6965 91.8174 79.1017 91.6495 79.4005 91.3507C79.6993 91.0519 79.8672 90.6466 79.8672 90.224V63.798L58.7991 84.8661H46.4067V72.4738L70.0833 48.7972H48.7966V34.4569H75.8838V42.9967L78.7599 40.1206C79.1056 39.7839 79.4762 39.4785 79.8672 39.2063ZM8.16601 16.9297V5.77618C8.16601 4.50842 8.66959 3.29259 9.56603 2.39615C10.4625 1.49971 11.6783 0.996094 12.9461 0.996094H78.2739C79.5416 0.996094 80.7575 1.49971 81.6539 2.39615C82.5504 3.29259 83.054 4.50842 83.054 5.77618V37.8261C83.6667 37.6959 84.2962 37.6309 84.9322 37.6351C87.2364 37.6503 89.4418 38.5724 91.0712 40.2017C92.7005 41.831 93.6226 44.0365 93.6377 46.3407C93.6529 48.6449 92.76 50.8623 91.1523 52.513L83.054 60.6113V90.224C83.054 91.4917 82.5504 92.7076 81.6539 93.604C80.7575 94.5005 79.5416 95.0041 78.2739 95.0041H12.9461C11.6783 95.0041 10.4625 94.5005 9.56603 93.604C8.66959 92.7076 8.16601 91.4917 8.16601 90.224V48.7969H5.77593C4.50818 48.7969 3.29232 48.2933 2.39588 47.3969C1.49944 46.5004 0.99585 45.2846 0.99585 44.0168V21.7098C0.99585 20.442 1.49944 19.2262 2.39588 18.3297C3.29232 17.4333 4.50818 16.9297 5.77593 16.9297H8.16601ZM17.7261 7.36924H14.5393V10.556H17.7261V7.36924ZM5.77593 20.1164C5.35335 20.1164 4.94809 20.2843 4.64928 20.5831C4.35047 20.8819 4.18257 21.2872 4.18257 21.7098V44.0168C4.18257 44.4394 4.35047 44.8447 4.64928 45.1435C4.94809 45.4423 5.35335 45.6102 5.77593 45.6102H37.6432C38.0657 45.6102 38.471 45.4423 38.7698 45.1435C39.0686 44.8447 39.2365 44.4394 39.2365 44.0168V21.7098C39.2365 21.2872 39.0686 20.8819 38.7698 20.5831C38.471 20.2843 38.0657 20.1164 37.6432 20.1164H5.77593ZM13.4121 40.7508L5.52492 32.8636L13.4121 24.9765L15.6667 27.2311L10.0341 32.8636L15.6667 38.4962L13.4121 40.7508ZM28.1626 38.4962L30.4172 40.7508L38.3044 32.8636L30.4172 24.9765L28.1626 27.2311L33.7951 32.8636L28.1626 38.4962ZM23.1913 24.0768L17.1968 40.5467L20.1913 41.6367L26.1859 25.1667L23.1913 24.0768ZM48.7966 31.2699H75.8838V16.9297H48.7966V31.2699ZM72.6971 28.0832H51.9834V20.1164H72.6971V28.0832ZM21.3113 7.36924H24.498V10.556H21.3113V7.36924ZM31.2697 7.36924H28.083V10.556H31.2697V7.36924ZM15.3362 52.781H18.5229V67.121H20.9129V70.3077H18.5229V72.698H15.3362V70.3077H12.946V67.121H15.3362V52.781ZM42.4233 75.8846H15.3362V79.0713H42.4233V75.8846ZM15.3362 81.6797H35.2532V84.8664H15.3362V81.6797ZM42.4233 84.8664H39.2366L39.1967 81.6797H42.4233V84.8664ZM30.4731 52.781H27.2864V55.17H24.8962V58.3568H27.2864V72.698H30.4731V58.3568H32.8631V55.17H30.4731V52.781ZM42.4233 52.781H39.2366V62.34H36.8464V65.5267H39.2366V72.698H42.4233V65.5267H44.8132V62.34H42.4233V52.781ZM49.5934 81.6794H57.4806L88.9016 50.2584C89.4195 49.7405 89.8304 49.1257 90.1106 48.449C90.3909 47.7724 90.5351 47.0472 90.5351 46.3148C90.5351 45.5824 90.3909 44.8572 90.1106 44.1806C89.8304 43.5039 89.4195 42.8891 88.9016 42.3712C88.3837 41.8534 87.769 41.4426 87.0924 41.1623C86.4157 40.882 85.6905 40.7378 84.9581 40.7378C84.2257 40.7378 83.5005 40.882 82.8238 41.1623C82.1472 41.4426 81.5323 41.8534 81.0145 42.3712L49.5934 73.7923V81.6794ZM72.6971 45.6105H51.9834V37.6437H72.6971V45.6105Z" fill="white"/>
</svg>
