<svg width="86" height="96" viewBox="0 0 86 96" fill="none" xmlns="http://www.w3.org/2000/svg">
<path d="M43 8.16622C35.6746 8.16622 29.0021 8.70519 24.1248 9.59197C21.6992 10.033 19.6383 10.5738 18.1463 11.2152C17.4064 11.5332 16.716 11.9137 16.1853 12.3852C15.6611 12.8509 15.1161 13.5713 15.1161 14.5397C15.1161 15.508 15.6611 16.2284 16.1853 16.6941C16.716 17.1657 17.4064 17.5461 18.1463 17.8641C19.6383 18.5055 21.6992 19.0463 24.1248 19.4874C29.0021 20.3741 35.6746 20.9131 43 20.9131C50.3253 20.9131 56.9978 20.3741 61.8751 19.4874C64.3008 19.0463 66.3616 18.5055 67.8536 17.8641C68.5935 17.5461 69.2839 17.1657 69.8146 16.6941C70.3388 16.2284 70.8838 15.508 70.8838 14.5397C70.8838 13.5713 70.3388 12.8509 69.8146 12.3852C69.2839 11.9137 68.5935 11.5332 67.8536 11.2152C66.3616 10.5738 64.3008 10.033 61.8751 9.59197C56.9978 8.70519 50.3253 8.16622 43 8.16622Z" fill="white"/>
<path fill-rule="evenodd" clip-rule="evenodd" d="M22.2863 59.9505C22.2863 71.3903 31.5601 80.6641 43 80.6641C54.4398 80.6641 63.7136 71.3903 63.7136 59.9505C63.7136 48.5106 54.4398 39.2368 43 39.2368C31.5601 39.2368 22.2863 48.5106 22.2863 59.9505ZM29.4792 48.7969C31.5881 46.2434 34.4064 44.2973 37.6323 43.2607C37.189 44.0505 36.7911 44.9292 36.438 45.8709C36.0999 46.7726 35.7953 47.7521 35.5281 48.7969H29.4792ZM25.5444 58.3571H34.2603C34.3275 56.1183 34.5352 53.9726 34.8641 51.9836H27.3841C26.391 53.9264 25.7497 56.0789 25.5444 58.3571ZM34.2603 61.5438H25.5444C25.7497 63.822 26.391 65.9745 27.3841 67.9173H34.8641C34.5352 65.9283 34.3275 63.7826 34.2603 61.5438ZM37.4485 61.5438H48.5514C48.4785 63.8254 48.251 65.9745 47.9021 67.9173H38.0978C37.7489 65.9745 37.5214 63.8254 37.4485 61.5438ZM48.5514 58.3571H37.4485C37.5214 56.0755 37.7489 53.9264 38.0978 51.9836H47.9021C48.251 53.9264 48.4785 56.0755 48.5514 58.3571ZM51.7396 61.5438C51.6725 63.7826 51.4647 65.9283 51.1358 67.9173H58.6158C59.6089 65.9745 60.2502 63.822 60.4555 61.5438H51.7396ZM60.4555 58.3571H51.7396C51.6725 56.1183 51.4647 53.9726 51.1358 51.9836H58.6158C59.6089 53.9264 60.2502 56.0789 60.4555 58.3571ZM37.6323 76.6402C34.4064 75.6036 31.5881 73.6575 29.4792 71.104H35.5281C35.7953 72.1488 36.0999 73.1283 36.438 74.03C36.7911 74.9717 37.189 75.8504 37.6323 76.6402ZM39.4218 72.9111C39.2106 72.3479 39.0125 71.7442 38.8292 71.104H47.1707C46.9874 71.7442 46.7893 72.3479 46.5781 72.9111C45.9685 74.5366 45.2811 75.7414 44.5986 76.5112C43.9145 77.2828 43.3706 77.4774 43 77.4774C42.6293 77.4774 42.0854 77.2828 41.4013 76.5112C40.7188 75.7414 40.0314 74.5366 39.4218 72.9111ZM49.5619 74.03C49.9 73.1283 50.2046 72.1488 50.4718 71.104H56.5207C54.4118 73.6575 51.5935 75.6036 48.3676 76.6402C48.8109 75.8504 49.2088 74.9717 49.5619 74.03ZM56.5207 48.7969H50.4718C50.2046 47.7521 49.9 46.7726 49.5619 45.8709C49.2088 44.9292 48.8109 44.0505 48.3676 43.2607C51.5935 44.2973 54.4118 46.2434 56.5207 48.7969ZM38.8292 48.7969C39.0125 48.1567 39.2106 47.553 39.4218 46.9898C40.0314 45.3643 40.7188 44.1595 41.4013 43.3897C42.0854 42.6181 42.6293 42.4235 43 42.4235C43.3706 42.4235 43.9145 42.6181 44.5986 43.3897C45.2811 44.1595 45.9685 45.3643 46.5781 46.9898C46.7893 47.553 46.9874 48.1567 47.1707 48.7969H38.8292Z" fill="white"/>
<path fill-rule="evenodd" clip-rule="evenodd" d="M85.224 14.5397V81.4608C85.224 83.898 83.5538 85.8864 81.3472 87.4208C79.0937 88.9878 75.9368 90.3347 72.1793 91.4397C64.6434 93.6561 54.3273 95.0044 43 95.0044C31.6726 95.0044 21.3565 93.6561 13.8206 91.4397C10.0631 90.3347 6.90624 88.9878 4.65274 87.4208C2.44612 85.8864 0.775894 83.898 0.775894 81.4608V14.5397C0.775894 12.1026 2.44604 10.1143 4.65255 8.57993C6.90595 7.01298 10.0627 5.6661 13.8201 4.56097C21.3558 2.34459 31.672 0.996094 43 0.996094C54.3279 0.996094 64.6441 2.34459 72.1798 4.56097C75.9372 5.6661 79.094 7.01298 81.3474 8.57993C83.5539 10.1143 85.224 12.1026 85.224 14.5397ZM6.47188 11.1963C4.56634 12.5213 3.96262 13.6767 3.96262 14.5397C3.96323 15.4024 4.56732 16.5587 6.47188 17.8831C8.33053 19.1755 11.124 20.4037 14.7193 21.4611C21.889 23.5699 31.8882 24.8965 43 24.8965C54.1117 24.8965 64.1109 23.5699 71.2806 21.4611C74.8759 20.4037 77.6694 19.1755 79.528 17.8831C81.4336 16.558 82.0373 15.4026 82.0373 14.5397C82.0373 13.6767 81.4336 12.5213 79.528 11.1963C77.6694 9.90382 74.8759 8.67564 71.2806 7.61821C64.1109 5.50947 54.1117 4.18282 43 4.18282C31.8882 4.18282 21.889 5.50947 14.7193 7.61821C11.124 8.67564 8.33053 9.90382 6.47188 11.1963ZM81.3474 20.4994C81.584 20.3349 81.8144 20.1651 82.0373 19.9901V24.0998C82.0373 24.9629 81.4335 26.1184 79.5279 27.4434C77.6691 28.7359 74.8755 29.9641 71.2802 31.0215C64.1103 33.1302 54.1111 34.4567 43 34.4567C31.8888 34.4567 21.8896 33.1302 14.7197 31.0215C11.1244 29.9641 8.33078 28.7359 6.47204 27.4434C4.56739 26.119 3.96324 24.9641 3.96262 24.1011V19.9901C4.18549 20.1651 4.41594 20.3349 4.65255 20.4994C6.90595 22.0663 10.0627 23.4132 13.8201 24.5184C21.3558 26.7347 31.672 28.0832 43 28.0832C54.3279 28.0832 64.6441 26.7347 72.1798 24.5184C75.9372 23.4132 79.094 22.0663 81.3474 20.4994ZM81.3472 30.0598C81.5838 29.8952 81.8144 29.7254 82.0373 29.5504V71.9007C82.0373 72.7637 81.4335 73.9192 79.5279 75.2443C77.6691 76.5368 74.8755 77.7649 71.2802 78.8223C64.1103 80.931 54.1111 82.2575 43 82.2575C31.8888 82.2575 21.8896 80.931 14.7197 78.8223C11.1244 77.7649 8.33078 76.5368 6.47204 75.2443C4.56739 73.9199 3.96324 72.7649 3.96262 71.902V29.5504C4.18555 29.7254 4.41606 29.8952 4.65274 30.0598C6.90624 31.6268 10.0631 32.9737 13.8206 34.0787C21.3565 36.2951 31.6726 37.6434 43 37.6434C54.3273 37.6434 64.6434 36.2951 72.1793 34.0787C75.9368 32.9737 79.0937 31.6268 81.3472 30.0598ZM81.3472 77.8606C81.5838 77.6961 81.8144 77.5263 82.0373 77.3513V81.4608C82.0373 82.3239 81.4335 83.4794 79.5279 84.8044C77.6691 86.0969 74.8755 87.3251 71.2802 88.3825C64.1103 90.4912 54.1111 91.8177 43 91.8177C31.8888 91.8177 21.8896 90.4912 14.7197 88.3825C11.1244 87.3251 8.33078 86.0969 6.47204 84.8044C4.56641 83.4794 3.96262 82.3239 3.96262 81.4608V77.3513C4.18555 77.5263 4.41606 77.6961 4.65274 77.8606C6.90624 79.4276 10.0631 80.7745 13.8206 81.8796C21.3565 84.0959 31.6726 85.4442 43 85.4442C54.3273 85.4442 64.6434 84.0959 72.1793 81.8796C75.9368 80.7745 79.0937 79.4276 81.3472 77.8606Z" fill="white"/>
</svg>
