<svg width="96" height="96" viewBox="0 0 96 96" fill="none" xmlns="http://www.w3.org/2000/svg">
<path fill-rule="evenodd" clip-rule="evenodd" d="M10.556 64.8021V32.8627H8.85909C7.57471 32.8826 6.35053 33.4107 5.45462 34.3312C4.55872 35.2518 4.0641 36.4898 4.07901 37.7742V81.2421L10.556 64.8021ZM13.7427 29.676L13.7427 4.18282H66.3237C66.7462 4.18282 67.1515 4.35069 67.4503 4.6495C67.7491 4.94831 67.917 5.35359 67.917 5.77618L67.917 34.4569V37.6437L67.917 46.4065H21.0603C20.0995 46.4022 19.16 46.6892 18.3657 47.2296C17.5713 47.7701 16.9595 48.5386 16.6108 49.4338L13.7427 56.7135L13.7427 32.8627V29.676ZM71.1037 37.6437V46.4065H77.4772V42.4237C77.4772 41.156 76.9736 39.9402 76.0771 39.0437C75.1807 38.1473 73.9648 37.6437 72.6971 37.6437H71.1037ZM80.6639 46.4065H90.2241C91.0034 46.4061 91.771 46.5962 92.46 46.9604C93.1489 47.3245 93.7384 47.8516 94.1771 48.4957C94.6158 49.1398 94.8904 49.8814 94.9769 50.6558C95.0634 51.4303 94.9592 52.2142 94.6735 52.9392L79.2896 91.9765C78.9409 92.8718 78.3291 93.6403 77.5347 94.1808C76.7404 94.7212 75.8009 95.0082 74.8401 95.0039H5.67634C4.89738 95.0037 4.13027 94.813 3.44181 94.4486C2.75334 94.0842 2.16434 93.5571 1.7261 92.9131C1.50111 92.5824 1.31936 92.2261 1.18408 91.8529H0.892286V37.7742C0.877425 35.6446 1.7078 33.5961 3.20132 32.0779C4.69483 30.5598 6.72954 29.696 8.85909 29.676H10.556V20.9131H0.995852V5.77618C0.995852 4.50842 1.49944 3.29259 2.39588 2.39615C3.29232 1.49971 4.50818 0.996094 5.77593 0.996094H10.556H13.7427H66.3237C67.5914 0.996094 68.8073 1.49971 69.7037 2.39615C70.6002 3.29259 71.1037 4.50842 71.1037 5.77618V34.4569H72.6971C74.81 34.4569 76.8364 35.2963 78.3304 36.7904C79.8245 38.2844 80.6639 40.3108 80.6639 42.4237V46.4065ZM77.4772 49.5932V49.5939H80.6639V49.5932H90.2241C90.4839 49.5932 90.7398 49.6567 90.9694 49.7783C91.199 49.8998 91.3955 50.0757 91.5416 50.2905C91.6877 50.5053 91.7791 50.7527 91.8077 51.0109C91.8363 51.2691 91.8014 51.5305 91.7059 51.7721L76.326 90.8094C76.2086 91.1066 76.0044 91.3617 75.7402 91.5414C75.4759 91.7211 75.1637 91.8172 74.8441 91.8172H5.68033C5.42051 91.8172 5.16463 91.7537 4.935 91.6321C4.70536 91.5106 4.50888 91.3347 4.36277 91.1199C4.21666 90.905 4.12533 90.6577 4.09669 90.3995C4.06805 90.1413 4.10303 89.8799 4.19852 89.6383L19.5824 50.601C19.6998 50.3038 19.904 50.0487 20.1682 49.869C20.4325 49.6893 20.7446 49.5932 21.0642 49.5932H67.917V49.5936H71.1037V49.5932H77.4772ZM10.556 17.7264H4.18257V5.77618C4.18257 5.35359 4.35047 4.94831 4.64928 4.6495C4.94809 4.35069 5.35335 4.18282 5.77593 4.18282H10.556V17.7264ZM17.7262 23.303H63.9336V8.16607H17.7262V23.303ZM49.5934 27.287H17.7262V30.4737H49.5934V27.287ZM17.7262 39.2364H54.3735V42.4232H17.7262V39.2364ZM63.9336 33.2617H17.7262V36.4484H63.9336V33.2617ZM58.3568 39.2364H63.9336V42.4232H58.3568V39.2364ZM57.0144 87.8341H72.5497L75.6886 79.8673H60.1534L57.0144 87.8341Z" fill="white"/>
</svg>
