<svg width="96" height="96" viewBox="0 0 96 96" fill="none" xmlns="http://www.w3.org/2000/svg">
<path fill-rule="evenodd" clip-rule="evenodd" d="M71.9004 51.9835C65.7751 51.9762 59.9029 49.5396 55.5717 45.2085C51.2405 40.8773 48.804 35.005 48.7966 28.8798V8.1661H50.39C63.7333 8.1661 70.6141 1.61324 70.7747 1.46025L70.777 1.45805L71.9044 0.34668L73.0277 1.46203C73.0914 1.52577 79.9787 8.1661 93.4107 8.1661H95.0041V28.8798C94.9967 35.005 92.5602 40.8773 88.229 45.2085C83.8978 49.5396 78.0256 51.9762 71.9004 51.9835ZM51.9834 11.3249V28.8798C51.9834 34.1621 54.0818 39.2281 57.817 42.9633C61.5521 46.6984 66.618 48.7968 71.9004 48.7968C77.1827 48.7968 82.2486 46.6984 85.9838 42.9633C89.7189 39.2281 91.8174 34.1621 91.8174 28.8798V11.3249C81.0144 10.9266 74.398 6.66038 71.9004 4.68859C69.4028 6.66038 62.7863 10.9545 51.9834 11.3249ZM6.57259 78.2735H3.38586V30.4727C3.38586 28.3597 4.22524 26.3333 5.71931 24.8393C7.21337 23.3452 9.23974 22.5059 11.3527 22.5059H44.8133V25.6926H11.3527C10.0849 25.6926 8.86905 26.1962 7.97261 27.0926C7.07617 27.9891 6.57259 29.2049 6.57259 30.4727V78.2735ZM87.0373 95.0041H8.96266C6.84973 95.0041 4.82336 94.1648 3.32929 92.6707C1.83523 91.1766 0.99585 89.1502 0.99585 87.0373V79.8672H32.0664H35.2531H60.7469H63.9336H95.0042V87.0373C95.0042 89.1502 94.1648 91.1766 92.6707 92.6707C91.1766 94.1648 89.1503 95.0041 87.0373 95.0041ZM63.9336 83.0539H91.8174V87.0373C91.8174 88.3051 91.3138 89.5209 90.4174 90.4173C89.521 91.3138 88.3051 91.8174 87.0373 91.8174H8.96266C7.6949 91.8174 6.47904 91.3138 5.5826 90.4173C4.68616 89.5209 4.18257 88.3051 4.18257 87.0373V83.0539H32.0664V85.4439C32.0664 86.7117 32.57 87.9275 33.4664 88.824C34.3629 89.7204 35.5787 90.224 36.8465 90.224H59.1535C60.4213 90.224 61.6372 89.7204 62.5336 88.824C63.43 87.9275 63.9336 86.7117 63.9336 85.4439V83.0539ZM60.7469 83.0539V85.4439C60.7469 85.8665 60.579 86.2718 60.2802 86.5706C59.9814 86.8694 59.5761 87.0373 59.1535 87.0373H36.8465C36.4239 87.0373 36.0187 86.8694 35.7198 86.5706C35.421 86.2718 35.2531 85.8665 35.2531 85.4439V83.0539H60.7469ZM89.4274 48.7969H92.6141V78.274H89.4274V48.7969ZM13.7428 78.2743H10.556V34.4568C10.556 33.1891 11.0596 31.9733 11.9561 31.0768C12.8525 30.1804 14.0684 29.6768 15.3361 29.6768H44.8133V32.8635H15.3361C14.9135 32.8635 14.5083 33.0313 14.2095 33.3302C13.9106 33.629 13.7428 34.0343 13.7428 34.4568V78.2743ZM82.2573 53.5771H85.444V78.2742H82.2573V53.5771ZM42.4232 52.7803V47.2029C42.4232 44.8787 41.4999 42.6497 39.8565 41.0062C38.213 39.3627 35.984 38.4395 33.6597 38.4395C31.3355 38.4395 29.1065 39.3627 27.463 41.0062C25.8195 42.6497 24.8962 44.8787 24.8962 47.2029V52.7803C23.6285 52.7803 22.4127 53.2839 21.5162 54.1803C20.6198 55.0768 20.1162 56.2926 20.1162 57.5604V71.1039C20.1162 72.3717 20.6198 73.5875 21.5162 74.484C22.4127 75.3804 23.6285 75.884 24.8963 75.884H42.4233C43.691 75.884 44.9069 75.3804 45.8033 74.484C46.6998 73.5875 47.2033 72.3717 47.2033 71.1039V57.5604C47.2033 56.2926 46.6998 55.0768 45.8033 54.1803C44.9069 53.2839 43.691 52.7803 42.4233 52.7803H42.4232ZM28.083 52.7803H39.2365V47.2029C39.2365 45.7239 38.6489 44.3054 37.6031 43.2596C36.5572 42.2137 35.1388 41.6262 33.6597 41.6262C32.1807 41.6262 30.7622 42.2137 29.7164 43.2596C28.6705 44.3054 28.083 45.7239 28.083 47.2029V52.7803ZM31.0041 67.111C31.3365 67.3331 31.6935 67.5114 32.0664 67.6432V70.3074H35.2531V67.6432C35.919 67.4078 36.5309 67.0255 37.0398 66.5165C37.9363 65.6201 38.4398 64.4043 38.4398 63.1365C38.4398 62.1911 38.1595 61.2669 37.6342 60.4809C37.109 59.6948 36.3625 59.0821 35.4891 58.7203C34.6156 58.3585 33.6545 58.2639 32.7272 58.4483C31.8 58.6327 30.9482 59.088 30.2797 59.7565C29.6112 60.425 29.1559 61.2767 28.9715 62.204C28.787 63.1312 28.8817 64.0923 29.2435 64.9658C29.6053 65.8392 30.2181 66.5858 31.0041 67.111ZM32.7746 61.8117C33.0366 61.6366 33.3446 61.5432 33.6598 61.5432C34.0824 61.5432 34.4876 61.711 34.7864 62.0098C35.0852 62.3087 35.2531 62.7139 35.2531 63.1365C35.2531 63.4517 35.1597 63.7597 34.9846 64.0217C34.8095 64.2838 34.5607 64.488 34.2695 64.6086C33.9784 64.7292 33.658 64.7607 33.349 64.6993C33.0399 64.6378 32.756 64.486 32.5331 64.2632C32.3103 64.0404 32.1585 63.7565 32.097 63.4474C32.0356 63.1383 32.0671 62.8179 32.1877 62.5268C32.3083 62.2356 32.5126 61.9868 32.7746 61.8117ZM23.7696 56.4337C24.0685 56.1349 24.4737 55.967 24.8963 55.967H42.4233C42.8458 55.967 43.2511 56.1349 43.5499 56.4337C43.8487 56.7325 44.0166 57.1378 44.0166 57.5604V71.1039C44.0166 71.5265 43.8487 71.9318 43.5499 72.2306C43.2511 72.5294 42.8458 72.6973 42.4233 72.6973H24.8963C24.4737 72.6973 24.0685 72.5294 23.7696 72.2306C23.4708 71.9318 23.3029 71.5265 23.3029 71.1039V57.5604C23.3029 57.1378 23.4708 56.7325 23.7696 56.4337ZM60.1324 39.9304C63.2539 43.0519 67.486 44.8078 71.9004 44.8131C76.3176 44.8121 80.5538 43.058 83.6787 39.9361C86.8036 36.8142 88.5617 32.5797 88.567 28.1625V13.1849H86.9736C77.7799 13.1849 73.0715 8.67171 73.0317 8.63187L71.9084 7.52051L70.785 8.62789L70.7757 8.6364C70.5347 8.8582 65.8332 13.1849 56.8431 13.1849H55.2498V28.1625C55.255 32.5769 57.011 36.809 60.1324 39.9304ZM58.4365 28.1625V16.3318C65.4632 15.9693 69.9445 13.2964 71.9004 11.8305C73.8562 13.2964 78.3376 15.9693 85.3643 16.3318V28.1625C85.3643 31.7333 83.9458 35.1579 81.4208 37.6829C78.8958 40.2079 75.4712 41.6264 71.9004 41.6264C68.3296 41.6264 64.905 40.2079 62.38 37.6829C59.855 35.1579 58.4365 31.7333 58.4365 28.1625ZM69.6418 36.0456L62.4757 28.8795L64.7303 26.6249L69.3789 31.2735L78.8236 19.4707L81.3092 21.4624L69.6418 36.0456Z" fill="white"/>
</svg>
