<svg width="128" height="24" viewBox="0 0 128 24" fill="none" xmlns="http://www.w3.org/2000/svg">
<g clip-path="url(#clip0_1645_15524)">
<path opacity="0.6" d="M28.608 14.9973C26.1334 13.376 9.40801 15.4133 8.25601 14.9973C7.18934 14.3893 8.33068 3.264 9.19468 1.632C9.50402 1.03467 9.88803 0.938667 10.7734 1.184C11.84 1.536 25.088 0.725334 30.176 0.458667C30.4214 0.810667 31.1147 -0.351998 31.2427 0.0640015C31.5414 0.725335 57.7707 0.213336 63.3707 0.298669C64.8747 0.298669 63.6693 0.938667 65.4507 0.746668C69.248 0.352001 77.4827 1.312 80.384 0.874666C82.0354 0.492883 83.7588 0.559168 85.376 1.06667C87.3067 1.52533 99.5627 1.94134 101.003 1.29067C101.344 1.10934 101.6 1.20533 101.579 1.45067C101.803 1.45067 102.645 1.6 102.891 1.632C103.136 1.664 109.984 2.45333 110.005 2.63467C110.012 2.69356 110.033 2.74984 110.067 2.79797C110.102 2.84609 110.148 2.88441 110.202 2.90916C110.256 2.93391 110.315 2.94424 110.374 2.93912C110.433 2.93401 110.49 2.91363 110.539 2.88C110.997 2.64533 120.021 2.64533 120.139 3.37067C120.384 5.504 118.389 14.0373 117.195 16.0427C116 18.048 110.496 15.0613 105.696 16.0427C81.568 14.08 84.192 14.496 79.4987 15.0613C78.9974 14.2933 76.9067 16.0107 75.7014 14.6453C75.2107 14.0907 71.5414 13.8347 70.6987 14.336C70.3467 14.5493 65.472 14.144 60.4374 13.9307C55.4027 13.7173 50.2187 13.696 49.248 14.4107C45.44 12.9707 30.656 14.8373 28.608 14.9973Z" fill="#FFEC43"/>
<path opacity="0.6" d="M23.7653 24C21.1413 22.3893 1.73865 23.5413 0.298649 23.0187C-0.832018 22.3467 1.21599 11.2853 2.30399 9.728C2.68799 9.152 3.12532 9.07733 4.10666 9.376C5.68532 9.952 23.9786 9.568 25.9946 9.51466C26.2613 9.86666 27.0613 8.72533 27.2213 9.152C27.7333 10.2187 62.4213 9.408 63.488 9.39733C65.184 9.39733 63.84 10.0267 65.8453 9.78133C70.112 9.28 79.4346 9.89866 82.6666 9.29066C84.5112 8.82262 86.4392 8.78975 88.2986 9.19466C90.8373 9.6 104.363 9.08799 105.877 8.26666C106.251 8.06399 106.539 8.128 106.549 8.37333C106.709 8.37333 116.075 8.59733 116.149 8.74666C116.171 8.80774 116.207 8.8628 116.255 8.90744C116.302 8.95207 116.359 8.98504 116.421 9.0037C116.483 9.02236 116.549 9.0262 116.613 9.01491C116.677 9.00361 116.737 8.9775 116.789 8.93866C117.28 8.68266 127.381 7.65866 127.563 8.37333C128.107 10.4213 126.933 19.1467 125.824 21.2907C124.715 23.4347 117.963 21.088 112.64 22.4853C83.4347 22.7307 89.984 22.304 82.4427 23.4667C81.824 22.7307 79.5093 24.5333 78.0586 23.2427C77.4613 22.7093 73.2266 22.624 72.288 23.1573C71.3493 23.6907 49.8027 22.24 47.5733 23.6693C43.5733 22.368 27.4986 23.7973 23.7653 24Z" fill="#FFEC43"/>
</g>
<defs>
<clipPath id="clip0_1645_15524">
<rect width="127.648" height="24" fill="white"/>
</clipPath>
</defs>
</svg>
