<svg width="150" height="22" viewBox="0 0 150 22" fill="none" xmlns="http://www.w3.org/2000/svg">
<g clip-path="url(#clip0_2175_2852)">
<path d="M48.5633 2.41064H43.2978V19.5897H48.5633V2.41064Z" fill="#1D1D1B"/>
<path d="M65.863 2.41064H52.4093V19.5758H57.6748V15.2567H67.2409C70.9523 15.2567 72.0796 12.3154 72.0796 9.75454V8.2839C72.0796 4.92511 70.8688 2.41064 65.863 2.41064ZM66.6703 9.17463C66.6703 10.1953 66.2063 11.0025 64.963 11.0025H57.6748V6.68337H64.5084C66.0996 6.68337 66.6703 7.34678 66.6703 8.51122V9.17463Z" fill="#1D1D1B"/>
<path d="M111.49 2.41064H74.9281V6.68337H110.209C112.464 6.68337 113.341 7.32358 113.341 9.76845V12.0881C113.341 14.5329 112.464 15.1731 110.209 15.1731H101.761V9.14216H96.4959V19.5804H111.49C116.76 19.5804 118.611 17.85 118.611 13.6005V8.3906C118.611 4.14571 116.76 2.41064 111.49 2.41064Z" fill="#1D1D1B"/>
<path d="M127.338 2.41064H122.072V19.5897H127.338V2.41064Z" fill="#1D1D1B"/>
<path d="M129.926 2.41064V6.68337H137.33V19.5897H142.596V6.68337H150V2.41064H129.926Z" fill="#1D1D1B"/>
<path d="M74.9234 9.15137V19.5896H93.1231V15.4607H80.1936V12.7097H93.1231V9.15137H80.1936H74.9234Z" fill="#1D1D1B"/>
<path d="M5.16809 0.66626H0V21.334H5.16809V0.66626Z" fill="#5C6BC0"/>
<path d="M7.7522 0.66626V5.83436H15.5043V8.4184H7.7522V21.334H12.9203V13.5865H20.6678V0.66626H7.7522Z" fill="#5C6BC0"/>
<path d="M31.0038 8.41846H23.2516V13.5866H31.0038V8.41846Z" fill="#5C6BC0"/>
<path d="M31.0038 16.1707H23.2516V21.3388H31.0038V16.1707Z" fill="#5C6BC0"/>
<path d="M31.0038 0.66626H23.2516V5.83436H31.0038V0.66626Z" fill="#5C6BC0"/>
</g>
<defs>
<clipPath id="clip0_2175_2852">
<rect width="150" height="20.6677" fill="white" transform="translate(0 0.66626)"/>
</clipPath>
</defs>
</svg>
