<svg width="120" height="90" viewBox="0 0 120 90" fill="none" xmlns="http://www.w3.org/2000/svg">
<rect width="120" height="90" rx="10" fill="white"/>
<path d="M82.5 45C82.5 57.4264 72.4264 67.5 60 67.5C47.5736 67.5 37.5 57.4264 37.5 45C37.5 32.5736 47.5736 22.5 60 22.5C72.4264 22.5 82.5 32.5736 82.5 45Z" fill="#DC251C"/>
<mask id="mask0_1887_9224" style="mask-type:alpha" maskUnits="userSpaceOnUse" x="37" y="41" width="46" height="31">
<path d="M82.5 71.25V48.75C74.9917 35.6105 59.9751 46.4233 59.9751 46.4233C59.9751 46.4233 44.9917 56.2334 37.5 41.25V71.25H82.5Z" fill="#C4C4C4"/>
</mask>
<g mask="url(#mask0_1887_9224)">
<path d="M82.5 45C82.5 57.4264 72.4264 67.5 60 67.5C47.5736 67.5 37.5 57.4264 37.5 45C37.5 32.5736 47.5736 22.5 60 22.5C72.4264 22.5 82.5 32.5736 82.5 45Z" fill="#41479B"/>
</g>
<path fill-rule="evenodd" clip-rule="evenodd" d="M29.1019 9.12463L17.8519 28.6102L14.6043 26.7352L25.8543 7.24963L29.1019 9.12463Z" fill="black"/>
<path fill-rule="evenodd" clip-rule="evenodd" d="M34.1128 12.0177L22.8628 31.5033L19.6152 29.6283L30.8652 10.1427L34.1128 12.0177Z" fill="black"/>
<path fill-rule="evenodd" clip-rule="evenodd" d="M39.1238 14.9108L27.8738 34.3963L24.6262 32.5213L35.8762 13.0358L39.1238 14.9108Z" fill="black"/>
<path fill-rule="evenodd" clip-rule="evenodd" d="M97.148 19.9499L102.148 28.6102L105.396 26.7352L100.396 18.0749L97.148 19.9499ZM90.898 9.12463L95.898 17.7849L99.1456 15.9099L94.1456 7.24963L90.898 9.12463Z" fill="black"/>
<path fill-rule="evenodd" clip-rule="evenodd" d="M85.8871 12.0177L97.1371 31.5033L100.385 29.6283L89.1347 10.1427L85.8871 12.0177Z" fill="black"/>
<path fill-rule="evenodd" clip-rule="evenodd" d="M87.1261 25.7361L92.1261 34.3963L95.3737 32.5213L90.3737 23.8611L87.1261 25.7361ZM80.8761 14.9108L85.8761 23.571L89.1237 21.696L84.1237 13.0358L80.8761 14.9108Z" fill="black"/>
<path fill-rule="evenodd" clip-rule="evenodd" d="M29.1019 80.8753L17.8519 61.3898L14.6043 63.2648L25.8543 82.7503L29.1019 80.8753Z" fill="black"/>
<path fill-rule="evenodd" clip-rule="evenodd" d="M27.8628 67.157L22.8628 58.4967L19.6152 60.3717L24.6152 69.032L27.8628 67.157ZM34.1128 77.9823L29.1128 69.322L25.8652 71.197L30.8652 79.8573L34.1128 77.9823Z" fill="black"/>
<path fill-rule="evenodd" clip-rule="evenodd" d="M39.1238 75.0892L27.8738 55.6036L24.6262 57.4786L35.8762 76.9642L39.1238 75.0892Z" fill="black"/>
<path fill-rule="evenodd" clip-rule="evenodd" d="M97.148 70.0501L102.148 61.3898L105.396 63.2648L100.396 71.9251L97.148 70.0501ZM90.898 80.8754L95.898 72.2151L99.1456 74.0901L94.1456 82.7504L90.898 80.8754Z" fill="black"/>
<path fill-rule="evenodd" clip-rule="evenodd" d="M92.1371 67.157L97.1371 58.4967L100.385 60.3717L95.3847 69.032L92.1371 67.157ZM85.8871 77.9823L90.8871 69.322L94.1347 71.197L89.1347 79.8573L85.8871 77.9823Z" fill="black"/>
<path fill-rule="evenodd" clip-rule="evenodd" d="M87.1261 64.2639L92.1261 55.6036L95.3737 57.4786L90.3737 66.1389L87.1261 64.2639ZM80.8761 75.0892L85.8761 66.429L89.1237 68.304L84.1237 76.9642L80.8761 75.0892Z" fill="black"/>
</svg>
