<svg width="180" height="180" viewBox="0 0 180 180" fill="none" xmlns="http://www.w3.org/2000/svg">
<circle cx="90" cy="90" r="52.5" fill="white"/>
<path d="M75 123.75V56.25L120 90L75 123.75ZM90 15C80.1509 15 70.3982 16.9399 61.2987 20.709C52.1993 24.4781 43.9314 30.0026 36.967 36.967C22.9018 51.0322 15 70.1088 15 90C15 109.891 22.9018 128.968 36.967 143.033C43.9314 149.997 52.1993 155.522 61.2987 159.291C70.3982 163.06 80.1509 165 90 165C109.891 165 128.968 157.098 143.033 143.033C157.098 128.968 165 109.891 165 90C165 80.1509 163.06 70.3982 159.291 61.2987C155.522 52.1993 149.997 43.9314 143.033 36.967C136.069 30.0026 127.801 24.4781 118.701 20.709C109.602 16.9399 99.8491 15 90 15V15Z" fill="#5C6BC0"/>
</svg>
