<svg width="120" height="90" viewBox="0 0 120 90" fill="none" xmlns="http://www.w3.org/2000/svg">
<rect width="120" height="90" fill="#41479B"/>
<path d="M59.9552 7.59085C59.9735 7.55369 60.0265 7.55369 60.0448 7.59085L62.1926 11.9426C62.1998 11.9574 62.2139 11.9676 62.2302 11.97L67.0327 12.6678C67.0737 12.6738 67.09 12.7242 67.0604 12.7531L63.5853 16.1405C63.5735 16.1519 63.5681 16.1685 63.5709 16.1847L64.3913 20.9678C64.3983 21.0086 64.3554 21.0398 64.3187 21.0205L60.0233 18.7622C60.0087 18.7546 59.9913 18.7546 59.9767 18.7622L55.6813 21.0205C55.6446 21.0398 55.6017 21.0086 55.6087 20.9678L56.4291 16.1847C56.4319 16.1685 56.4265 16.1519 56.4147 16.1405L52.9396 12.7531C52.9099 12.7242 52.9263 12.6738 52.9673 12.6678L57.7698 11.97C57.7861 11.9676 57.8002 11.9574 57.8074 11.9426L59.9552 7.59085Z" fill="#FFD018"/>
<path d="M59.9552 67.5908C59.9735 67.5537 60.0265 67.5537 60.0448 67.5908L62.1926 71.9426C62.1998 71.9574 62.2139 71.9676 62.2302 71.97L67.0327 72.6678C67.0737 72.6738 67.09 72.7242 67.0604 72.7531L63.5853 76.1405C63.5735 76.152 63.5681 76.1685 63.5709 76.1847L64.3913 80.9678C64.3983 81.0086 64.3554 81.0398 64.3187 81.0205L60.0233 78.7622C60.0087 78.7546 59.9913 78.7546 59.9767 78.7622L55.6813 81.0205C55.6446 81.0398 55.6017 81.0086 55.6087 80.9678L56.4291 76.1847C56.4319 76.1685 56.4265 76.152 56.4147 76.1405L52.9396 72.7531C52.9099 72.7242 52.9263 72.6738 52.9673 72.6678L57.7698 71.97C57.7861 71.9676 57.8002 71.9574 57.8074 71.9426L59.9552 67.5908Z" fill="#FFD018"/>
<path d="M29.9552 37.5908C29.9735 37.5537 30.0265 37.5537 30.0448 37.5908L32.1926 41.9426C32.1998 41.9574 32.2139 41.9676 32.2302 41.97L37.0327 42.6678C37.0737 42.6738 37.0901 42.7242 37.0604 42.7531L33.5853 46.1405C33.5735 46.152 33.5681 46.1685 33.5709 46.1847L34.3913 50.9678C34.3983 51.0086 34.3554 51.0398 34.3187 51.0205L30.0233 48.7622C30.0087 48.7546 29.9913 48.7546 29.9767 48.7622L25.6813 51.0205C25.6446 51.0398 25.6017 51.0086 25.6087 50.9678L26.4291 46.1847C26.4319 46.1685 26.4265 46.152 26.4147 46.1405L22.9396 42.7531C22.9099 42.7242 22.9263 42.6738 22.9673 42.6678L27.7698 41.97C27.7861 41.9676 27.8002 41.9574 27.8074 41.9426L29.9552 37.5908Z" fill="#FFD018"/>
<path d="M89.9552 37.5908C89.9735 37.5537 90.0265 37.5537 90.0448 37.5908L92.1926 41.9426C92.1998 41.9574 92.2139 41.9676 92.2302 41.97L97.0327 42.6678C97.0737 42.6738 97.0901 42.7242 97.0604 42.7531L93.5853 46.1405C93.5735 46.152 93.5681 46.1685 93.5709 46.1847L94.3913 50.9678C94.3983 51.0086 94.3554 51.0398 94.3187 51.0205L90.0233 48.7622C90.0087 48.7546 89.9913 48.7546 89.9767 48.7622L85.6813 51.0205C85.6446 51.0398 85.6017 51.0086 85.6087 50.9678L86.4291 46.1847C86.4319 46.1685 86.4265 46.152 86.4147 46.1405L82.9396 42.7531C82.9099 42.7242 82.9263 42.6738 82.9673 42.6678L87.7698 41.97C87.7861 41.9676 87.8002 41.9574 87.8074 41.9426L89.9552 37.5908Z" fill="#FFD018"/>
<path d="M74.9552 11.6101C74.9735 11.573 75.0265 11.573 75.0448 11.6101L77.1925 15.9619C77.1998 15.9767 77.2139 15.9869 77.2302 15.9893L82.0326 16.6871C82.0737 16.693 82.09 16.7434 82.0604 16.7724L78.5853 20.1598C78.5735 20.1712 78.5681 20.1878 78.5709 20.204L79.3912 24.9871C79.3983 25.0279 79.3554 25.0591 79.3187 25.0398L75.0233 22.7815C75.0087 22.7739 74.9913 22.7739 74.9767 22.7815L70.6813 25.0398C70.6446 25.0591 70.6017 25.0279 70.6087 24.9871L71.4291 20.204C71.4319 20.1878 71.4265 20.1712 71.4147 20.1598L67.9396 16.7724C67.9099 16.7434 67.9263 16.693 67.9673 16.6871L72.7698 15.9893C72.7861 15.9869 72.8001 15.9767 72.8074 15.9619L74.9552 11.6101Z" fill="#FFD018"/>
<path d="M44.9552 63.5716C44.9735 63.5344 45.0265 63.5344 45.0448 63.5716L47.1926 67.9233C47.1998 67.9381 47.2139 67.9483 47.2302 67.9507L52.0327 68.6485C52.0737 68.6545 52.0901 68.7049 52.0604 68.7338L48.5853 72.1212C48.5735 72.1327 48.5681 72.1492 48.5709 72.1654L49.3913 76.9485C49.3983 76.9893 49.3554 77.0205 49.3187 77.0012L45.0233 74.7429C45.0087 74.7353 44.9913 74.7353 44.9767 74.7429L40.6813 77.0012C40.6446 77.0205 40.6017 76.9893 40.6087 76.9485L41.4291 72.1654C41.4319 72.1492 41.4265 72.1327 41.4147 72.1212L37.9396 68.7338C37.9099 68.7049 37.9263 68.6545 37.9673 68.6485L42.7698 67.9507C42.7861 67.9483 42.8002 67.9381 42.8074 67.9233L44.9552 63.5716Z" fill="#FFD018"/>
<path d="M33.9744 22.5908C33.9928 22.5537 34.0458 22.5537 34.0641 22.5908L36.2118 26.9426C36.2191 26.9574 36.2332 26.9676 36.2495 26.97L41.0519 27.6678C41.0929 27.6738 41.1093 27.7242 41.0796 27.7531L37.6045 31.1405C37.5928 31.1519 37.5874 31.1685 37.5902 31.1847L38.4105 35.9678C38.4175 36.0086 38.3747 36.0398 38.338 36.0205L34.0425 33.7622C34.028 33.7546 34.0106 33.7546 33.996 33.7622L29.7005 36.0205C29.6639 36.0398 29.621 36.0086 29.628 35.9678L30.4484 31.1847C30.4511 31.1685 30.4458 31.1519 30.434 31.1405L26.9589 27.7531C26.9292 27.7242 26.9456 27.6738 26.9866 27.6678L31.7891 26.97C31.8053 26.9676 31.8194 26.9574 31.8267 26.9426L33.9744 22.5908Z" fill="#FFD018"/>
<path d="M85.9359 52.5908C85.9543 52.5537 86.0072 52.5537 86.0256 52.5908L88.1733 56.9426C88.1806 56.9574 88.1947 56.9676 88.211 56.97L93.0134 57.6678C93.0544 57.6738 93.0708 57.7242 93.0411 57.7531L89.566 61.1405C89.5542 61.152 89.5489 61.1685 89.5517 61.1847L90.372 65.9678C90.379 66.0086 90.3361 66.0398 90.2995 66.0205L86.004 63.7622C85.9894 63.7546 85.972 63.7546 85.9575 63.7622L81.662 66.0205C81.6253 66.0398 81.5825 66.0086 81.5895 65.9678L82.4098 61.1847C82.4126 61.1685 82.4072 61.152 82.3955 61.1405L78.9204 57.7531C78.8907 57.7242 78.9071 57.6738 78.9481 57.6678L83.7505 56.97C83.7668 56.9676 83.7809 56.9574 83.7882 56.9426L85.9359 52.5908Z" fill="#FFD018"/>
<path d="M85.936 22.5908C85.9543 22.5537 86.0073 22.5537 86.0256 22.5908L88.1734 26.9426C88.1806 26.9574 88.1947 26.9676 88.211 26.97L93.0135 27.6678C93.0545 27.6738 93.0708 27.7242 93.0412 27.7531L89.5661 31.1405C89.5543 31.1519 89.5489 31.1685 89.5517 31.1847L90.3721 35.9678C90.3791 36.0086 90.3362 36.0398 90.2995 36.0205L86.0041 33.7622C85.9895 33.7546 85.9721 33.7546 85.9575 33.7622L81.6621 36.0205C81.6254 36.0398 81.5825 36.0086 81.5895 35.9678L82.4099 31.1847C82.4127 31.1685 82.4073 31.1519 82.3955 31.1405L78.9204 27.7531C78.8908 27.7242 78.9071 27.6738 78.9481 27.6678L83.7506 26.97C83.7669 26.9676 83.781 26.9574 83.7882 26.9426L85.936 22.5908Z" fill="#FFD018"/>
<path d="M33.9744 52.5908C33.9927 52.5537 34.0457 52.5537 34.0641 52.5908L36.2118 56.9426C36.2191 56.9574 36.2331 56.9676 36.2494 56.97L41.0519 57.6678C41.0929 57.6738 41.1093 57.7242 41.0796 57.7531L37.6045 61.1405C37.5927 61.152 37.5873 61.1685 37.5901 61.1847L38.4105 65.9678C38.4175 66.0086 38.3746 66.0398 38.3379 66.0205L34.0425 63.7622C34.0279 63.7546 34.0105 63.7546 33.996 63.7622L29.7005 66.0205C29.6638 66.0398 29.621 66.0086 29.628 65.9678L30.4483 61.1847C30.4511 61.1685 30.4457 61.152 30.4339 61.1405L26.9588 57.7531C26.9292 57.7242 26.9455 57.6738 26.9866 57.6678L31.789 56.97C31.8053 56.9676 31.8194 56.9574 31.8267 56.9426L33.9744 52.5908Z" fill="#FFD018"/>
<path d="M44.9552 11.6101C44.9735 11.573 45.0265 11.573 45.0448 11.6101L47.1926 15.9619C47.1998 15.9767 47.2139 15.9869 47.2302 15.9893L52.0327 16.6871C52.0737 16.693 52.0901 16.7434 52.0604 16.7724L48.5853 20.1598C48.5735 20.1712 48.5681 20.1878 48.5709 20.204L49.3913 24.9871C49.3983 25.0279 49.3554 25.0591 49.3187 25.0398L45.0233 22.7815C45.0087 22.7739 44.9913 22.7739 44.9767 22.7815L40.6813 25.0398C40.6446 25.0591 40.6017 25.0279 40.6087 24.9871L41.4291 20.204C41.4319 20.1878 41.4265 20.1712 41.4147 20.1598L37.9396 16.7724C37.9099 16.7434 37.9263 16.693 37.9673 16.6871L42.7698 15.9893C42.7861 15.9869 42.8002 15.9767 42.8074 15.9619L44.9552 11.6101Z" fill="#FFD018"/>
<path d="M74.9552 63.5716C74.9735 63.5344 75.0265 63.5344 75.0448 63.5716L77.1926 67.9233C77.1998 67.9381 77.2139 67.9483 77.2302 67.9507L82.0327 68.6485C82.0737 68.6545 82.0901 68.7049 82.0604 68.7338L78.5853 72.1212C78.5735 72.1327 78.5681 72.1492 78.5709 72.1654L79.3913 76.9485C79.3983 76.9893 79.3554 77.0205 79.3187 77.0012L75.0233 74.7429C75.0087 74.7353 74.9913 74.7353 74.9767 74.7429L70.6813 77.0012C70.6446 77.0205 70.6017 76.9893 70.6087 76.9485L71.4291 72.1654C71.4319 72.1492 71.4265 72.1327 71.4147 72.1212L67.9396 68.7338C67.9099 68.7049 67.9263 68.6545 67.9673 68.6485L72.7698 67.9507C72.7861 67.9483 72.8002 67.9381 72.8074 67.9233L74.9552 63.5716Z" fill="#FFD018"/>
</svg>
