<svg width="492" height="40" viewBox="0 0 492 40" fill="none" xmlns="http://www.w3.org/2000/svg">
<g clip-path="url(#clip0_1671_18161)">
<path d="M12.2663 0H0.201447V39.3622H12.2663V0Z" fill="white"/>
<path d="M51.9049 0H21.0784V39.3303H33.1432V29.4446H55.0619C63.5658 29.4446 66.1488 22.7053 66.1488 16.827V13.4574C66.1488 5.76136 63.3744 0 51.9049 0ZM53.7545 15.4877C53.7545 17.8262 52.6915 19.6758 49.8427 19.6758H33.1432V9.77941H48.801C52.447 9.77941 53.7545 11.3101 53.7545 13.9676V15.4877Z" fill="white"/>
<path d="M156.449 0H72.6755V9.77941H153.515C158.681 9.77941 160.69 11.2464 160.69 16.8483V22.1632C160.69 27.7651 158.681 29.232 153.515 29.232H134.158V15.4132H122.094V39.3303H156.449C168.525 39.3303 172.766 35.3654 172.766 25.6391V13.7018C172.766 3.96491 168.525 0 156.449 0Z" fill="white"/>
<path d="M192.771 0H180.706V39.3622H192.771V0Z" fill="white"/>
<path d="M198.692 0V9.79006H215.657V39.3622H227.722V9.79006H244.687V0H198.692Z" fill="white"/>
<path d="M72.6755 15.4346V39.3623H114.366V29.9018H84.7404V23.5983H114.366V15.4346H84.7404H72.6755Z" fill="white"/>
<path d="M316.088 40.0001C313.799 40.0431 311.552 39.3867 309.646 38.1186C307.769 36.8485 306.267 35.0973 305.298 33.0482C304.229 30.7945 303.694 28.3246 303.736 25.8305C303.689 23.2167 304.319 20.6352 305.564 18.3365C306.77 16.1458 308.563 14.3347 310.741 13.1066C313.163 11.7729 315.896 11.1053 318.66 11.172C321.405 11.0907 324.122 11.7477 326.526 13.0747C328.649 14.3051 330.381 16.1107 331.522 18.2833C332.702 20.5652 333.3 23.1026 333.265 25.6711V39.3516H325.102V34.9509H324.932C324.432 35.9179 323.778 36.7974 322.997 37.5552C322.178 38.35 321.2 38.9623 320.127 39.3516C318.833 39.8172 317.463 40.0371 316.088 40.0001ZM318.554 32.8037C319.724 32.8287 320.876 32.5029 321.86 31.8682C322.801 31.2198 323.539 30.3164 323.986 29.264C324.499 28.0992 324.757 26.8376 324.74 25.5648C324.757 24.3227 324.499 23.0923 323.986 21.9613C323.528 20.9295 322.792 20.0459 321.86 19.4101C320.876 18.7755 319.724 18.4497 318.554 18.4747C317.36 18.4471 316.184 18.7725 315.174 19.4101C314.211 20.0323 313.447 20.9177 312.973 21.9613C312.459 23.0923 312.202 24.3227 312.218 25.5648C312.202 26.8376 312.46 28.0992 312.973 29.264C313.436 30.3284 314.201 31.2337 315.174 31.8682C316.184 32.5059 317.36 32.8313 318.554 32.8037Z" fill="white"/>
<path d="M337.507 39.3518V23.5133C337.478 21.3243 338.052 19.1695 339.165 17.2843C340.312 15.3932 341.955 13.8527 343.917 12.8304C346.183 11.668 348.705 11.0941 351.251 11.1615C353.795 11.0852 356.316 11.6597 358.575 12.8304C360.51 13.8513 362.119 15.3944 363.22 17.2843C364.302 19.1801 364.856 21.3309 364.825 23.5133V39.3518H356.502V23.7366C356.509 22.8055 356.27 21.8891 355.811 21.0791C355.35 20.2809 354.691 19.6147 353.898 19.1445C353.082 18.6595 352.147 18.4094 351.198 18.4217C350.224 18.4039 349.265 18.654 348.424 19.1445C347.636 19.6184 346.982 20.2839 346.521 21.0791C346.053 21.8859 345.81 22.8038 345.819 23.7366V39.3518H337.507Z" fill="white"/>
<path d="M370.193 39.3516V32.7505H383.449C383.786 32.7577 384.119 32.6772 384.416 32.5166C384.702 32.35 384.942 32.1166 385.118 31.8363C385.293 31.5679 385.386 31.2536 385.383 30.9328C385.39 30.5915 385.298 30.2554 385.118 29.9655C384.945 29.686 384.703 29.4555 384.416 29.2958C384.122 29.1272 383.788 29.0427 383.449 29.0513H378.623C376.962 29.0732 375.312 28.7736 373.765 28.1691C372.363 27.6072 371.166 26.6321 370.332 25.3734C369.431 23.8792 368.991 22.1524 369.067 20.4093C369.055 18.9125 369.456 17.4414 370.225 16.1573C371.001 14.8606 372.1 13.7874 373.414 13.0428C374.754 12.2563 376.283 11.8485 377.836 11.8629H391.102V18.5172H379.144C378.913 18.5106 378.684 18.5495 378.469 18.6316C378.254 18.7137 378.057 18.8373 377.889 18.9955C377.728 19.1556 377.6 19.346 377.513 19.5558C377.425 19.7657 377.38 19.9907 377.38 20.2179C377.38 20.4452 377.425 20.6703 377.513 20.8801C377.6 21.0899 377.728 21.2803 377.889 21.4404C378.052 21.6068 378.248 21.7379 378.464 21.8257C378.679 21.9135 378.911 21.956 379.144 21.9506H383.874C385.643 21.9098 387.403 22.2206 389.051 22.8648C390.445 23.4266 391.627 24.4119 392.431 25.6817C393.303 27.2052 393.723 28.9454 393.643 30.699C393.656 32.2333 393.236 33.7403 392.431 35.0465C391.658 36.3649 390.56 37.4629 389.242 38.2355C387.867 39.0317 386.302 39.4395 384.714 39.4154L370.193 39.3516Z" fill="white"/>
<path d="M397.523 39.3515V0.127441H405.835V39.3515H397.523Z" fill="white"/>
<path d="M422.269 40.0001C419.98 40.0431 417.733 39.3867 415.827 38.1186C413.95 36.8485 412.448 35.0973 411.48 33.0482C410.41 30.7946 409.876 28.3246 409.917 25.8305C409.871 23.2167 410.5 20.6352 411.745 18.3365C412.951 16.1458 414.744 14.3347 416.922 13.1066C419.344 11.7719 422.077 11.1043 424.841 11.172C427.586 11.0922 430.302 11.7492 432.707 13.0747C434.828 14.3053 436.556 16.1111 437.693 18.2833C438.88 20.5625 439.483 23.1012 439.447 25.6711V39.3516H431.283V34.9509H431.07C430.571 35.9179 429.917 36.7974 429.136 37.5552C428.317 38.35 427.339 38.9623 426.266 39.3516C424.984 39.8111 423.63 40.0309 422.269 40.0001ZM424.735 32.8037C425.902 32.8298 427.051 32.5039 428.03 31.8682C428.974 31.222 429.712 30.318 430.156 29.264C430.67 28.0992 430.927 26.8377 430.911 25.5648C430.928 24.3227 430.67 23.0923 430.156 21.9613C429.701 20.928 428.965 20.0438 428.03 19.4101C427.051 18.7745 425.902 18.4485 424.735 18.4747C423.541 18.4471 422.365 18.7725 421.355 19.4101C420.392 20.0323 419.628 20.9177 419.154 21.9613C418.636 23.0907 418.378 24.3222 418.4 25.5648C418.378 26.8382 418.636 28.1008 419.154 29.264C419.618 30.3284 420.383 31.2337 421.355 31.8682C422.365 32.5059 423.541 32.8313 424.735 32.8037Z" fill="white"/>
<path d="M480.425 39.3516C477.588 39.4156 474.774 38.8188 472.208 37.6083C469.958 36.5447 468.051 34.873 466.702 32.7823C465.371 30.6334 464.691 28.1449 464.746 25.6179C464.669 22.9164 465.319 20.2439 466.627 17.8793C467.803 15.7874 469.531 14.059 471.623 12.8833C473.752 11.7138 476.146 11.1134 478.575 11.14C481.123 11.0513 483.643 11.6852 485.846 12.9683C487.777 14.154 489.318 15.8799 490.278 17.9325C491.31 20.1778 491.822 22.6266 491.777 25.097C491.777 25.5647 491.777 26.16 491.703 26.734C491.667 27.2297 491.603 27.723 491.512 28.2115H473.441C473.628 29.0961 474.055 29.9123 474.674 30.5714C475.307 31.2376 476.101 31.7283 476.981 31.9957C477.988 32.3128 479.039 32.4671 480.095 32.4528H488.631V39.3197L480.425 39.3516ZM473.281 23.0348H483.752C483.682 22.4748 483.572 21.9206 483.422 21.3765C483.295 20.8621 483.068 20.378 482.753 19.9521C482.454 19.5462 482.095 19.1878 481.69 18.8892C481.276 18.5736 480.812 18.3293 480.318 18.1663C479.027 17.7489 477.628 17.8054 476.375 18.3258C475.761 18.5903 475.211 18.9816 474.759 19.4738C474.331 19.9656 473.996 20.5311 473.77 21.1427C473.548 21.7564 473.384 22.39 473.281 23.0348Z" fill="white"/>
<path d="M261.057 18.6447V11.8203H281.509V18.634L261.057 18.6447ZM273.909 27.6906V28.2434C273.909 29.3711 274.357 30.4526 275.154 31.25C275.951 32.0473 277.033 32.4953 278.161 32.4953H281.498V39.309H277.246C274.145 39.309 271.171 38.0771 268.978 35.8843C266.785 33.6915 265.554 30.7173 265.554 27.6162V5.12354H273.909V27.6906Z" fill="white"/>
<path d="M441.711 18.6447V11.8203H462.163V18.634L441.711 18.6447ZM454.541 27.6906V28.2434C454.541 29.3711 454.989 30.4526 455.786 31.25C456.584 32.0473 457.665 32.4953 458.793 32.4953H462.131V39.309H457.879C454.778 39.309 451.804 38.0771 449.611 35.8843C447.418 33.6915 446.186 30.7173 446.186 27.6162V5.12354H454.509L454.541 27.6906Z" fill="white"/>
<path d="M294.19 39.3834H285.878V23.5131C285.878 20.4212 287.102 17.4551 289.284 15.2638C291.465 13.0725 294.425 11.8344 297.517 11.8203H301.982V18.6447H298.485C297.357 18.6447 296.275 19.0926 295.478 19.89C294.681 20.6874 294.233 21.7689 294.233 22.8966V39.2771L294.19 39.3834Z" fill="white"/>
</g>
<defs>
<clipPath id="clip0_1671_18161">
<rect width="491.597" height="40" fill="white" transform="translate(0.201447)"/>
</clipPath>
</defs>
</svg>
