<svg width="20" height="14" viewBox="0 0 20 14" fill="none" xmlns="http://www.w3.org/2000/svg">
<mask id="mask0_945_9134" style="mask-type:alpha" maskUnits="userSpaceOnUse" x="0" y="0" width="20" height="14">
<rect width="20" height="14" rx="2" fill="white"/>
</mask>
<g mask="url(#mask0_945_9134)">
<rect width="20" height="14" fill="#EE343C"/>
<path fill-rule="evenodd" clip-rule="evenodd" d="M8.95378 3.17452C8.73047 2.95567 8.38499 2.92161 8.12323 3.09262V3.09262C7.69076 3.37517 7.73056 4.02112 8.19445 4.24843L8.7257 4.50874C8.92272 4.60528 9.04761 4.80555 9.04761 5.02495V5.02495C9.04761 5.34243 8.79024 5.5998 8.47275 5.5998H8.24978C8.14809 5.5998 8.04775 5.57654 7.95644 5.5318L6.58959 4.86204C6.35038 4.74483 6.06327 4.79112 5.87302 4.97756V4.97756C5.56316 5.28123 5.6468 5.80008 6.0364 5.99098L6.50413 6.22017C6.78588 6.35823 6.81006 6.75056 6.54739 6.92217V6.92217C6.2435 7.12071 6.33463 7.58806 6.69086 7.65788L7.10328 7.73872C7.4825 7.81304 7.59212 8.30292 7.28074 8.53178L6.92863 8.79058C6.69479 8.96246 6.81636 9.33314 7.10658 9.33314V9.33314C7.13067 9.33314 7.15467 9.33024 7.17807 9.32451L8.09452 9.09998C8.42982 9.01783 8.68985 9.39238 8.49567 9.67781V9.67781C8.32552 9.92793 8.50467 10.2665 8.80718 10.2665H9.23415C9.40733 10.2665 9.5613 10.3767 9.61707 10.5407V10.5407C9.74143 10.9063 10.2585 10.9063 10.3829 10.5407V10.5407C10.4387 10.3767 10.5926 10.2665 10.7658 10.2665H11.1928C11.4953 10.2665 11.6745 9.92793 11.5043 9.67781V9.67781C11.3101 9.39238 11.5702 9.01783 11.9055 9.09998L12.8219 9.32451C12.8453 9.33024 12.8693 9.33314 12.8934 9.33314V9.33314C13.1836 9.33314 13.3052 8.96246 13.0713 8.79058L12.7192 8.53178C12.4079 8.30292 12.5175 7.81304 12.8967 7.73872L13.3091 7.65788C13.6653 7.58806 13.7565 7.12071 13.4526 6.92217V6.92217C13.1899 6.75056 13.2141 6.35823 13.4958 6.22017L13.9636 5.99098C14.3532 5.80008 14.4368 5.28123 14.127 4.97756V4.97756C13.9367 4.79112 13.6496 4.74483 13.4104 4.86204L12.0435 5.5318C11.9522 5.57654 11.8519 5.5998 11.7502 5.5998H11.5272C11.2097 5.5998 10.9524 5.34243 10.9524 5.02495V5.02495C10.9524 4.80555 11.0771 4.60536 11.2741 4.50882C11.4415 4.42681 11.6248 4.33696 11.8056 4.24841C12.2694 4.0211 12.3092 3.37517 11.8768 3.09262V3.09262C11.615 2.92161 11.2695 2.95567 11.0462 3.17452L10.4666 3.74252C10.2074 3.99655 9.79259 3.99655 9.53337 3.74252L8.95378 3.17452Z" fill="#262626"/>
</g>
</svg>
