<svg width="20" height="14" viewBox="0 0 20 14" fill="none" xmlns="http://www.w3.org/2000/svg">
<rect width="20" height="14" rx="2" fill="#F0F4FA"/>
<mask id="mask0_945_9466" style="mask-type:alpha" maskUnits="userSpaceOnUse" x="0" y="0" width="20" height="14">
<rect width="20" height="14" rx="2" fill="white"/>
</mask>
<g mask="url(#mask0_945_9466)">
<rect width="20" height="14" fill="#0B36B2"/>
<g filter="url(#filter0_d_945_9466)">
<path fill-rule="evenodd" clip-rule="evenodd" d="M16.1905 14V0H6.19049L16.1905 14Z" fill="#FFD045"/>
</g>
<path fill-rule="evenodd" clip-rule="evenodd" d="M12.381 13.0665L11.7075 13.2598L11.9048 12.5998L11.7075 11.9399L12.381 12.1332L13.0544 11.9399L12.8571 12.5998L13.0544 13.2598L12.381 13.0665Z" fill="#F0F4FA"/>
<path fill-rule="evenodd" clip-rule="evenodd" d="M10.4762 10.2667L9.80274 10.46L9.99999 9.80003L9.80274 9.14007L10.4762 9.33337L11.1496 9.14007L10.9524 9.80003L11.1496 10.46L10.4762 10.2667Z" fill="#F0F4FA"/>
<path fill-rule="evenodd" clip-rule="evenodd" d="M8.57145 7.46641L7.89801 7.65971L8.09526 6.99974L7.89801 6.33977L8.57145 6.53307L9.24488 6.33977L9.04764 6.99974L9.24488 7.65971L8.57145 7.46641Z" fill="#F0F4FA"/>
<path fill-rule="evenodd" clip-rule="evenodd" d="M6.66667 4.6666L5.99323 4.8599L6.19048 4.19994L5.99323 3.53997L6.66667 3.73327L7.3401 3.53997L7.14286 4.19994L7.3401 4.8599L6.66667 4.6666Z" fill="#F0F4FA"/>
<path fill-rule="evenodd" clip-rule="evenodd" d="M4.76189 1.8668L4.08846 2.0601L4.2857 1.40013L4.08846 0.740164L4.76189 0.933464L5.43533 0.740164L5.23808 1.40013L5.43533 2.0601L4.76189 1.8668Z" fill="#F0F4FA"/>
</g>
<defs>
<filter id="filter0_d_945_9466" x="6.19049" y="0" width="10" height="14" filterUnits="userSpaceOnUse" color-interpolation-filters="sRGB">
<feFlood flood-opacity="0" result="BackgroundImageFix"/>
<feColorMatrix in="SourceAlpha" type="matrix" values="0 0 0 0 0 0 0 0 0 0 0 0 0 0 0 0 0 0 127 0" result="hardAlpha"/>
<feOffset/>
<feColorMatrix type="matrix" values="0 0 0 0 0 0 0 0 0 0 0 0 0 0 0 0 0 0 0.06 0"/>
<feBlend mode="normal" in2="BackgroundImageFix" result="effect1_dropShadow_945_9466"/>
<feBlend mode="normal" in="SourceGraphic" in2="effect1_dropShadow_945_9466" result="shape"/>
</filter>
</defs>
</svg>
