<svg width="20" height="14" viewBox="0 0 20 14" fill="none" xmlns="http://www.w3.org/2000/svg">
<rect width="20" height="14" rx="2" fill="#F0F4FA"/>
<mask id="mask0_962_9032" style="mask-type:alpha" maskUnits="userSpaceOnUse" x="0" y="0" width="20" height="14">
<rect width="20" height="14" rx="2" fill="white"/>
</mask>
<g mask="url(#mask0_962_9032)">
<path fill-rule="evenodd" clip-rule="evenodd" d="M9.99995 10.2667C11.8409 10.2667 13.3333 8.8042 13.3333 7.00007C13.3333 5.19593 11.8409 3.7334 9.99995 3.7334C8.159 3.7334 6.66662 5.19593 6.66662 7.00007C6.66662 8.8042 8.159 10.2667 9.99995 10.2667Z" fill="#E01B41"/>
<mask id="mask1_962_9032" style="mask-type:alpha" maskUnits="userSpaceOnUse" x="6" y="3" width="8" height="8">
<path fill-rule="evenodd" clip-rule="evenodd" d="M9.99995 10.2667C11.8409 10.2667 13.3333 8.8042 13.3333 7.00007C13.3333 5.19593 11.8409 3.7334 9.99995 3.7334C8.159 3.7334 6.66662 5.19593 6.66662 7.00007C6.66662 8.8042 8.159 10.2667 9.99995 10.2667Z" fill="white"/>
</mask>
<g mask="url(#mask1_962_9032)">
<path fill-rule="evenodd" clip-rule="evenodd" d="M6.66663 7.46699C7.61901 8.34199 9.04758 8.86699 9.99996 7.46699C10.9523 6.06699 12.8571 6.06699 13.3333 7.46699C13.8095 8.86699 13.3333 10.267 13.3333 10.267H6.66663C6.66663 10.267 5.71425 6.59199 6.66663 7.46699Z" fill="#0E4B9C"/>
</g>
<path opacity="0.75" fill-rule="evenodd" clip-rule="evenodd" d="M14.937 2.59023C14.7768 2.68089 14.7226 2.88296 14.8161 3.04158L15.9062 4.89205C15.9997 5.05067 16.2053 5.10576 16.3656 5.0151L16.6101 4.87673C16.7703 4.78607 16.8245 4.584 16.731 4.42538L15.6409 2.57491C15.5474 2.41629 15.3418 2.3612 15.1815 2.45186L14.937 2.59023ZM13.6998 3.29019C13.5396 3.38085 13.4855 3.58292 13.5789 3.74154L14.6691 5.59201C14.7625 5.75063 14.9682 5.80572 15.1284 5.71506L15.373 5.57669C15.5332 5.48604 15.5873 5.28396 15.4939 5.12535L14.4037 3.27487C14.3103 3.11626 14.1046 3.06117 13.9444 3.15182L13.6998 3.29019ZM3.26893 9.57494C3.17548 9.41633 3.22962 9.21425 3.38984 9.1236L3.6344 8.98523C3.79462 8.89457 4.00027 8.94966 4.09371 9.10828L5.18389 10.9588C5.27733 11.1174 5.2232 11.3194 5.06297 11.4101L4.81841 11.5485C4.65819 11.6391 4.45255 11.584 4.3591 11.4254L3.26893 9.57494ZM4.62724 8.42359C4.46702 8.51425 4.41288 8.71632 4.50633 8.87494L5.5965 10.7254C5.68995 10.884 5.89559 10.9391 6.05582 10.8485L6.30037 10.7101C6.4606 10.6194 6.51474 10.4174 6.42129 10.2587L5.33111 8.40827C5.23767 8.24966 5.03203 8.19457 4.8718 8.28522L4.62724 8.42359ZM14.669 8.40816C14.7625 8.24955 14.9681 8.19445 15.1284 8.28511L15.3729 8.42348C15.5331 8.51414 15.5873 8.71621 15.4938 8.87483L14.4037 10.7253C14.3102 10.8839 14.1046 10.939 13.9443 10.8484L13.6998 10.71C13.5396 10.6193 13.4854 10.4172 13.5789 10.2586L14.669 8.40816ZM16.3656 8.98509C16.2053 8.89444 15.9997 8.94953 15.9062 9.10815L14.8161 10.9586C14.7226 11.1172 14.7768 11.3193 14.937 11.41L15.1815 11.5483C15.3418 11.639 15.5474 11.5839 15.6409 11.4253L16.731 9.57481C16.8245 9.4162 16.7703 9.21412 16.6101 9.12347L16.3656 8.98509ZM4.35931 2.57494C4.45275 2.41633 4.6584 2.36124 4.81862 2.45189L5.06318 2.59026C5.2234 2.68092 5.27754 2.88299 5.1841 3.04161L4.09392 4.89208C4.00048 5.0507 3.79483 5.10579 3.63461 5.01513L3.39005 4.87676C3.22983 4.78611 3.17569 4.58403 3.26913 4.42542L4.35931 2.57494ZM6.05557 3.1519C5.89535 3.06124 5.68971 3.11633 5.59626 3.27495L4.50609 5.12542C4.41264 5.28404 4.46678 5.48611 4.627 5.57677L4.87156 5.71514C5.03178 5.80579 5.23743 5.7507 5.33087 5.59209L6.42105 3.74161C6.51449 3.583 6.46036 3.38092 6.30013 3.29027L6.05557 3.1519Z" fill="#262626"/>
</g>
</svg>
