<svg width="20" height="14" viewBox="0 0 20 14" fill="none" xmlns="http://www.w3.org/2000/svg">
<rect width="20" height="14" rx="2" fill="#F0F4FA"/>
<mask id="mask0_945_8909" style="mask-type:alpha" maskUnits="userSpaceOnUse" x="0" y="0" width="20" height="14">
<rect width="20" height="14" rx="2" fill="white"/>
</mask>
<g mask="url(#mask0_945_8909)">
<rect width="20" height="14" fill="#1537D1"/>
<rect x="9.5238" width="10.4762" height="14" fill="#EA3058"/>
<path fill-rule="evenodd" clip-rule="evenodd" d="M6.66669 14H13.3334V0H6.66669V14Z" fill="#FFCF3C"/>
<path fill-rule="evenodd" clip-rule="evenodd" d="M9.04765 6.06663H10V6.5333H9.04765V6.06663Z" fill="#FFEDB1"/>
<path d="M9.29716 5.93343H10.7028C10.898 5.93343 11.0515 6.10047 11.0349 6.29501L10.9592 7.18566C10.9168 7.68391 10.5 8.06676 9.99997 8.06676C9.49992 8.06676 9.08313 7.68391 9.04076 7.18566L8.96503 6.29501C8.94848 6.10047 9.10192 5.93343 9.29716 5.93343Z" stroke="#D32E28" stroke-width="0.666667"/>
<path fill-rule="evenodd" clip-rule="evenodd" d="M9.04765 6.53343H10.9524V7.0001H10.4762H9.52384H9.04765V6.53343Z" fill="#D32E28"/>
</g>
</svg>
